<?xml version="1.0" encoding="UTF-8"?>
<svg width="120px" height="120px" viewBox="0 0 120 120" version="1.1" xmlns="http://www.w3.org/2000/svg" xmlns:xlink="http://www.w3.org/1999/xlink">
    <!-- Generator: Sketch 61.2 (89653) - https://sketch.com -->
    <title>1Password</title>
    <desc>Created with Sketch.</desc>
    <g id="1Password" stroke="none" stroke-width="1" fill="none" fill-rule="evenodd">
        <rect fill="#000000" x="0" y="0" width="120" height="120"></rect>
        <g id="1password" transform="translate(36.000000, 36.000000)" fill="#FFFFFF" fill-rule="nonzero">
            <path d="M21.02,20.026 L21.02,14.598 C21.02,13.986 21.516,13.49 22.128,13.49 L25.95,13.49 C26.562,13.49 27.058,13.986 27.058,14.598 L27.058,24.534 C27.058,24.686 26.982,24.802 26.906,24.916 L25.95,25.872 C25.72,26.102 25.72,26.446 25.95,26.636 L26.906,27.592 C27.00999,27.6910469 27.0655131,27.8305854 27.058,27.974 L27.058,33.4 C27.058,34.0119315 26.5619315,34.508 25.95,34.508 L22.128,34.508 C21.5160685,34.508 21.02,34.0119315 21.02,33.4 L21.02,23.464 C21.02,23.312 21.096,23.196 21.172,23.082 L22.128,22.126 C22.358,21.896 22.358,21.552 22.128,21.362 L21.172,20.406 C21.068099,20.3077255 21.0125369,20.1688201 21.02,20.026 L21.02,20.026 Z M38.254,24 C38.254,18.9075362 35.537203,14.2019056 31.1270001,11.6556737 C26.7167971,9.10944181 21.2832029,9.10944181 16.8729999,11.6556737 C12.462797,14.2019056 9.746,18.9075362 9.746,24 C9.746,31.8722668 16.1277332,38.254 24,38.254 C31.8722668,38.254 38.254,31.8722668 38.254,24 Z M42.764,24 C42.764,34.356 34.356,42.726 24.038,42.726 C13.682,42.726 5.312,34.318 5.312,24 C5.312,13.644 13.72,5.274 24.038,5.274 C34.356,5.274 42.764,13.644 42.764,24 L42.764,24 Z M1.528,24 C1.528,36.42 11.578,46.472 24,46.472 C36.422,46.472 46.472,36.42 46.472,24 C46.472,11.58 36.42,1.528 24,1.528 C11.58,1.528 1.528,11.58 1.528,24 Z M0,24 C0,10.738 10.738,0 24,0 C37.262,0 48,10.738 48,24 C48,37.262 37.262,48 24,48 C10.738,48 0,37.262 0,24 Z" id="Shape"></path>
        </g>
    </g>
</svg>