<?xml version="1.0" encoding="UTF-8"?>
<svg width="120px" height="120px" viewBox="0 0 120 120" version="1.1" xmlns="http://www.w3.org/2000/svg" xmlns:xlink="http://www.w3.org/1999/xlink">
    <!-- Generator: Sketch 61.2 (89653) - https://sketch.com -->
    <title>Airbnb</title>
    <desc>Created with Sketch.</desc>
    <g id="Airbnb" stroke="none" stroke-width="1" fill="none" fill-rule="evenodd">
        <rect fill="#000000" x="0" y="0" width="120" height="120"></rect>
        <g id="airbnb" transform="translate(40.000000, 38.000000)" fill="#FFFFFF" fill-rule="nonzero">
            <path d="M20.2,32.58 C17.83375,29.6109375 16.4425,27.0084375 15.98125,24.781875 C13.8671875,16.531875 26.5384375,16.531875 24.424375,24.781875 C23.9134375,27.0553125 22.5221875,29.656875 20.205625,32.58 L20.2,32.58 Z M33.1515625,39.4453125 C29.2084375,41.161875 25.3075,38.4253125 21.9671875,34.71375 C31.7078125,22.5196875 26.29,15.96375 20.2,15.96375 C15.05125,15.96375 12.21625,20.3240625 13.33,25.385625 C13.9796875,28.1221875 15.6953125,31.2346875 18.4328125,34.71375 C15.383125,38.0934375 12.75625,39.6534375 10.45,39.8625 C5.7625,40.5590625 2.0959375,36.013125 3.765625,31.3228125 C5.18125,27.6515625 14.239375,9.6496875 14.6284375,8.6765625 C16.105,5.8575 17.0246875,3.2953125 20.1953125,3.2953125 C23.2271875,3.2953125 24.2640625,5.7271875 25.855,8.908125 C29.23,15.52875 34.2315625,25.546875 36.62125,31.3228125 C37.8559375,34.423125 36.4928125,38.00625 33.1515625,39.4453125 Z M37.5578125,26.6840625 C25.4753125,0.9684375 24.8059375,0.6 20.2,0.6 C15.9325,0.6 14.1184375,3.5690625 12.263125,7.4240625 C2.310625,27.328125 1.3459375,30.1490625 1.2625,30.3946875 C-1.101875,36.894375 3.769375,42.6002226 9.6653125,42.6002226 C11.700625,42.6002226 15.3475,42.031875 20.2,36.75 C25.70125,42.729375 29.693125,42.6002226 30.7346875,42.6002226 C36.630625,42.6046875 41.501875,36.894375 39.135625,30.3946875 C39.1375,30.03 37.55875,26.7478125 37.55875,26.6840625 L37.5578125,26.6840625 Z" id="Shape"></path>
        </g>
    </g>
</svg>