<?xml version="1.0" encoding="UTF-8"?>
<svg width="120px" height="120px" viewBox="0 0 120 120" version="1.1" xmlns="http://www.w3.org/2000/svg" xmlns:xlink="http://www.w3.org/1999/xlink">
    <!-- Generator: Sketch 61.2 (89653) - https://sketch.com -->
    <title>Amazon</title>
    <desc>Created with Sketch.</desc>
    <g id="Amazon" stroke="none" stroke-width="1" fill="none" fill-rule="evenodd">
        <rect fill="#000000" x="0" y="0" width="120" height="120"></rect>
        <g id="amazon-fill" transform="translate(36.000000, 36.000000)">
            <polygon id="Path" points="0 0 48 0 48 48 0 48"></polygon>
            <path d="M43.992,36.46 C43.992,37.914 43.182,40.714 41.364,42.252 C41,42.532 40.634,42.374 40.794,41.966 C41.324,40.67 42.538,37.672 41.968,36.982 C41.568,36.458 39.908,36.496 38.492,36.618 C37.844,36.7 37.278,36.738 36.836,36.828 C36.43,36.862 36.346,36.502 36.754,36.222 C37.278,35.852 37.844,35.572 38.494,35.366 C40.794,34.678 43.454,35.092 43.834,35.532 C43.906,35.616 43.994,35.852 43.994,36.458 L43.992,36.46 Z M40.15,39.048 C39.6218991,39.4513915 39.0673195,39.818884 38.49,40.148 C34.246,42.698 28.75,44.034 23.974,44.034 C16.288,44.034 9.414,41.2 4.198,36.458 C3.752,36.094 4.122,35.566 4.644,35.852 C10.264,39.132 17.22,41.116 24.422,41.116 C28.952,41.116 33.838,40.268 38.492,38.444 C38.816,38.322 39.18,38.156 39.498,38.04 C40.232,37.71 40.878,38.526 40.15,39.048 L40.15,39.048 Z M27.81,16.988 C27.81,14.906 27.892,13.68 27.202,12.628 C26.59,11.762 25.536,11.242 24.066,11.324 C22.47,11.412 20.756,12.458 20.318,14.376 C20.234,14.816 19.976,15.248 19.446,15.342 L14.574,14.722 C14.226,14.642 13.698,14.376 13.87,13.68 C14.916,8.176 19.62,6.258 24.066,6 L25.112,6 C27.552,6 30.686,6.698 32.692,8.528 C35.126,10.8 34.868,13.852 34.868,17.168 L34.868,25.022 C34.868,27.378 35.822,28.422 36.784,29.65 C37.044,30.088 37.132,30.604 36.694,30.96 C35.734,31.83 33.906,33.398 32.86,34.268 C32.512,34.534 31.884,34.562 31.64,34.358 C30.1,33.068 29.724,32.352 28.77,31.042 C27.11,32.784 25.718,33.746 24.06,34.268 C22.8940243,34.5639348 21.6949105,34.709119 20.492,34.7 C16.312,34.7 13,32.094 13,26.94 C13,22.842 15.18,20.056 18.4,18.738 C21.62,17.418 26.3,16.998 27.808,16.99 L27.81,16.988 Z M26.854,27.372 C27.894,25.628 27.808,24.2 27.808,21.002 C26.506,21.002 25.196,21.092 24.066,21.358 C21.976,21.964 20.318,23.28 20.318,26.068 C20.318,28.248 21.452,29.732 23.368,29.732 C23.632,29.732 23.864,29.7 24.066,29.642 C25.406,29.27 26.242,28.598 26.854,27.372 L26.854,27.372 Z" id="Shape" fill="#FFFFFF" fill-rule="nonzero"></path>
        </g>
    </g>
</svg>