<?xml version="1.0" encoding="UTF-8"?>
<svg width="120px" height="120px" viewBox="0 0 120 120" version="1.1" xmlns="http://www.w3.org/2000/svg" xmlns:xlink="http://www.w3.org/1999/xlink">
    <!-- Generator: Sketch 61.2 (89653) - https://sketch.com -->
    <title>Apollo</title>
    <desc>Created with Sketch.</desc>
    <g id="Apollo" stroke="none" stroke-width="1" fill="none" fill-rule="evenodd">
        <rect fill="#000000" x="0" y="0" width="120" height="120"></rect>
        <g id="apollo-icon" transform="translate(40.000000, 39.000000)">
            <g id="Group-2-Clipped">
                <g id="Group-2">
                    <g id="Group" transform="translate(0.263158, 0.000000)">
                        <path d="M36.0851786,21.5350877 L37.5,21.5350877 C38.5900357,21.5350877 39.4736842,23.8914837 39.4736842,26.7982456 C39.4736842,29.7050075 38.5900357,32.0614035 37.5,32.0614035 L36.3253876,32.0614035 C34.4625607,38.3530125 27.7434191,42.258772 19.7368421,42.258772 C11.7302651,42.258772 5.00851005,38.3530125 3.14488614,32.0614035 L1.97368421,32.0614035 C0.88364852,32.0614035 -6.5281114e-14,29.7050075 -6.5281114e-14,26.7982456 C-6.5281114e-14,23.8914837 0.88364852,21.5350877 1.97368421,21.5350877 L3.38630887,21.5350877 C5.53743425,14.7689656 12.0430759,10 19.735561,10 C27.4280462,10 33.9353867,14.7689656 36.0851786,21.5350877 Z M19.7368421,39.2982456 C27.7304371,39.2982456 34.2105263,33.9275588 34.2105263,28.1140351 C34.2105263,22.3005114 27.7304371,17.5877193 19.7368421,17.5877193 C11.743247,17.5877193 5.2631579,22.3005114 5.2631579,28.1140351 C5.2631579,33.9275588 11.743247,39.2982456 19.7368421,39.2982456 Z" id="Combined-Shape" fill="#FFFFFF"></path>
                        <ellipse id="Oval-8" fill="#FFFFFF" cx="19.7368421" cy="12.9824562" rx="1.97368421" ry="1"></ellipse>
                        <path d="M21.0448599,12.8814234 L20.3947369,4.42982456 L19.0789474,4.42982456 L18.4287896,12.8813918 C18.423874,12.9452946 18.456421,13.0062595 18.5122536,13.037731 C18.8359293,13.2201794 19.2441255,13.3114035 19.7368421,13.3114035 C20.2295643,13.3114035 20.6377641,13.2201773 20.9614416,13.0377249 L20.9614289,13.0377023 C21.0172395,13.0062425 21.0497735,12.9453014 21.0448599,12.8814234 Z" id="Path-2" fill="#FFFFFF" fill-rule="nonzero"></path>
                        <g id="Combined-Shape" transform="translate(15.500000, 0.000000)">
                            <g id="path-5-link" fill="#000000" fill-rule="nonzero">
                                <circle id="path-5" cx="4.2368421" cy="3.75" r="3.75"></circle>
                            </g>
                            <g id="path-5-link" fill="#FFFFFF">
                                <circle id="path-5" cx="4.2368421" cy="3.75" r="3.75"></circle>
                            </g>
                        </g>
                        <path d="M19.7368421,39.2982456 C27.7304372,39.2982456 34.2105263,33.9275588 34.2105263,28.1140351 C34.2105263,22.3005114 27.7304372,17.5877193 19.7368421,17.5877193 C11.7432471,17.5877193 5.2631579,22.3005114 5.2631579,28.1140351 C5.2631579,33.9275588 11.7432471,39.2982456 19.7368421,39.2982456 Z" id="Oval-5-Copy" stroke="#000000" stroke-width="2.08881579" fill="#FFFFFF"></path>
                        <path d="M16.5332205,30.7550662 C15.9336444,29.7688519 14.8489726,29.110124 13.6104465,29.110124 L12.9465709,29.110124 C11.7080449,29.110124 10.6233731,29.7688519 10.0237971,30.7550662 C9.7086842,30.2060067 9.52850875,29.5696269 9.52850875,28.891165 L9.52850875,27.9166666 C9.52850875,25.8455988 11.207441,24.1666666 13.2785088,24.1666666 C15.3495766,24.1666666 17.0285088,25.8455988 17.0285088,27.9166666 L17.0285088,28.891165 C17.0285088,29.5696269 16.8483334,30.2060067 16.5332205,30.7550662 Z" id="Combined-Shape" fill="#000000"></path>
                        <path d="M29.462175,30.8341633 C28.8652065,29.8366595 27.7741475,29.1688499 26.5271132,29.1688499 L25.8632376,29.1688499 C24.6162033,29.1688499 23.5251444,29.8366595 22.9281758,30.8341633 C22.6206713,30.2900355 22.4451755,29.6614314 22.4451755,28.991838 L22.4451755,27.9166666 C22.4451755,25.8455988 24.1241076,24.1666666 26.1951755,24.1666666 C28.2662432,24.1666666 29.9451755,25.8455988 29.9451755,27.9166666 L29.9451755,28.991838 C29.9451755,29.6614314 29.7696796,30.2900355 29.462175,30.8341633 Z" id="Combined-Shape" fill="#000000"></path>
                    </g>
                </g>
            </g>
        </g>
    </g>
</svg>