<?xml version="1.0" encoding="UTF-8"?>
<svg width="120px" height="120px" viewBox="0 0 120 120" version="1.1" xmlns="http://www.w3.org/2000/svg" xmlns:xlink="http://www.w3.org/1999/xlink">
    <!-- Generator: Sketch 61.2 (89653) - https://sketch.com -->
    <title>App Store</title>
    <desc>Created with Sketch.</desc>
    <g id="App-Store" stroke="none" stroke-width="1" fill="none" fill-rule="evenodd">
        <rect fill="#000000" x="0" y="0" width="120" height="120"></rect>
        <g id="app-store-2365235" transform="translate(34.000000, 37.000000)" fill="#FFFFFF">
            <path d="M39.7973333,29.12 L48.8366667,29.12 C50.6794568,29.12 52.1733333,30.6138766 52.1733333,32.4566667 C52.1733333,34.2994568 50.6794568,35.7933333 48.8366667,35.7933333 L39.7973333,35.7933333 L39.7973333,29.12 Z" id="Path"></path>
            <path d="M28.6953333,29.12 C29.9687472,29.1123835 31.1922111,29.6148775 32.0926668,30.5153332 C32.9931225,31.4157889 33.4956165,32.6392528 33.4880853,33.9126667 C33.4904415,34.5572918 33.3667873,35.1961719 33.124,35.7933333 L3.33666667,35.7933333 C1.49387655,35.7933333 0,34.2994568 0,32.4566667 C0,30.6138766 1.49387655,29.12 3.33666667,29.12 L28.6953333,29.12 Z M27.846,7.15866667 L27.846,12.9826667 L23.9633333,12.9826667 L19.2313333,4.85333333 C18.6658546,3.87787383 18.6643109,2.67469618 19.2272847,1.69778885 C19.7902585,0.720881517 20.8320489,0.118958194 21.9595627,0.119139293 C23.0870765,0.119320472 24.1286734,0.721578499 24.6913333,1.69866667 L27.846,7.15866667 Z M31.1826667,12.8006667 L47.7446667,41.496 C48.6660617,43.0875006 48.1228339,45.1246049 46.5313333,46.046 C44.9398328,46.9673951 42.9027284,46.4241672 41.9813333,44.8326667 L31.9713333,27.4213333 C31.0613333,25.7226667 30.394,24.388 29.9693333,23.66 C27.9217228,20.1714959 28.4156085,15.7512189 31.1826667,12.8006667 L31.1826667,12.8006667 Z" id="Shape"></path>
            <path d="M17.5933333,32.1533333 L9.88866667,32.1533333 L27.3,2.002 C28.2213951,0.410499476 30.2584994,-0.132728338 31.85,0.78866671 C33.4415005,1.71006176 33.9847284,3.74716612 33.0633333,5.33866667 L17.5933333,32.1533333 Z M13.5286667,39.13 L10.3133333,44.772 C9.71729526,45.8015204 8.61729077,46.4348539 7.42768093,46.4334324 C6.23807109,46.432006 5.13958594,45.7960409 4.54601421,44.7650966 C3.95244249,43.7341523 3.95396186,42.4648537 4.55,41.4353333 L6.916,37.31 C7.65073642,36.9444176 8.46136374,36.7573498 9.282,36.764 C11.0261532,36.7067376 12.6595122,37.6167519 13.5286667,39.13 L13.5286667,39.13 Z" id="Shape"></path>
        </g>
    </g>
</svg>