<?xml version="1.0" encoding="UTF-8"?>
<svg width="120px" height="120px" viewBox="0 0 120 120" version="1.1" xmlns="http://www.w3.org/2000/svg" xmlns:xlink="http://www.w3.org/1999/xlink">
    <!-- Generator: Sketch 61.2 (89653) - https://sketch.com -->
    <title>Audible</title>
    <desc>Created with Sketch.</desc>
    <g id="Audible" stroke="none" stroke-width="1" fill="none" fill-rule="evenodd">
        <rect fill="#000000" x="0" y="0" width="120" height="120"></rect>
        <g id="audible" transform="translate(30.000000, 41.000000)" fill="#FFFFFF" fill-rule="nonzero">
            <path d="M60,13.740625 L60,18.803125 L30,37.553125 L0,18.8125 L0,13.75 L30,32.5 L60,13.740625 Z M41.765625,20.490625 L46.18125,17.734375 C42.69375,12.503125 36.740625,9.053125 29.990625,9.053125 C23.240625,9.053125 17.2875,12.49375 13.809375,17.715625 L13.8375,17.715625 C14.071875,17.5 14.315625,17.29375 14.559375,17.0875 C22.96875,10.1125 35.128125,11.640625 41.765625,20.490625 Z M21.13125,22.253125 C22.715625,21.1375 24.553125,20.5 26.5125,20.5 C29.7375,20.5 32.625,22.225 34.6125,24.9625 L38.86875,22.3 C36.909375,19.496875 33.65625,17.659375 29.98125,17.659375 C26.334375,17.659375 23.1,19.478125 21.13125,22.253125 L21.13125,22.253125 Z M9.7125,10.103125 C22.06875,0.325 39.54375,2.940625 48.853125,15.925 L48.91875,16.01875 L53.49375,13.16875 C48.478125,5.509375 39.825,0.446875 29.990625,0.446875 C20.2875,0.446875 11.559375,5.4625 6.50625,13.159375 C7.434375,12.175 8.634375,10.95625 9.7125,10.103125 Z" id="Shape"></path>
        </g>
    </g>
</svg>