<?xml version="1.0" encoding="UTF-8"?>
<svg width="120px" height="120px" viewBox="0 0 120 120" version="1.1" xmlns="http://www.w3.org/2000/svg" xmlns:xlink="http://www.w3.org/1999/xlink">
    <!-- Generator: Sketch 61.2 (89653) - https://sketch.com -->
    <title>Camera</title>
    <desc>Created with Sketch.</desc>
    <g id="Camera" stroke="none" stroke-width="1" fill="none" fill-rule="evenodd">
        <rect fill="#000000" x="0" y="0" width="120" height="120"></rect>
        <g>
            <rect id="Rectangle" fill="#000000" fill-rule="nonzero" style="mix-blend-mode: multiply;" x="0" y="-4.26325641e-14" width="120" height="119.220779" rx="26"></rect>
            <g id="maximize" transform="translate(42.000000, 41.727273)" stroke="#FFFFFF" stroke-linecap="round" stroke-linejoin="round" stroke-width="4">
                <path d="M10,0 L4,0 C1.790861,0 0,1.77923203 0,3.97402597 L0,9.93506494 M36,9.93506494 L36,3.97402597 C36,1.77923203 34.209139,0 32,0 L26,0 M26,35.7662338 L32,35.7662338 C34.209139,35.7662338 36,33.9870017 36,31.7922078 L36,25.8311688 M0,25.8311688 L0,31.7922078 C0,33.9870017 1.790861,35.7662338 4,35.7662338 L10,35.7662338" id="Shape"></path>
            </g>
        </g>
    </g>
</svg>