<?xml version="1.0" encoding="UTF-8"?>
<svg width="120px" height="120px" viewBox="0 0 120 120" version="1.1" xmlns="http://www.w3.org/2000/svg" xmlns:xlink="http://www.w3.org/1999/xlink">
    <!-- Generator: Sketch 61.2 (89653) - https://sketch.com -->
    <title>Cashapp</title>
    <desc>Created with Sketch.</desc>
    <g id="Cashapp" stroke="none" stroke-width="1" fill="none" fill-rule="evenodd">
        <rect fill="#000000" x="0" y="0" width="120" height="120"></rect>
        <g id="cashapp" transform="translate(48.000000, 44.000000)" fill="#FFFFFF" fill-rule="nonzero">
            <path d="M22.84,8.2 L20.98,10.06 C20.6045286,10.4092507 20.0257272,10.4178895 19.64,10.08 C17.8386741,8.55873372 15.557757,7.72286967 13.2,7.72 C11.26,7.72 9.32,8.36 9.32,10.14 C9.32,11.94 11.4,12.54 13.8,13.44 C18,14.84 21.48,16.6 21.48,20.72 C21.48,25.2 18,28.28 12.32,28.62 L11.8,31.02 C11.7052268,31.4746155 11.304389,31.8000002 10.84,31.8000002 L7.26,31.8000002 L7.08,31.78 C6.54681895,31.6603757 6.2083869,31.1349154 6.32,30.6 L6.88,28.06 C4.72443487,27.5196336 2.74208587,26.438978 1.12,24.92 L1.12,24.9 C0.939243662,24.7198702 0.837642974,24.4751854 0.837642974,24.22 C0.837642974,23.9648146 0.939243662,23.7201298 1.12,23.54 L3.12,21.6 C3.49689241,21.246923 4.08310759,21.246923 4.46,21.6 C6.28,23.32 8.72,24.28 11.24,24.24 C13.84,24.24 15.58,23.14 15.58,21.4 C15.58,19.66 13.82,19.2 10.5,17.96 C6.98,16.7 3.64,14.92 3.64,10.76 C3.64,5.92 7.66,3.56 12.42,3.34 L12.92,0.88 C13.0159529,0.428989958 13.4190064,0.109905922 13.88,0.119767137 L17.44,0.119767137 L17.64,0.14 C18.16,0.26 18.5,0.76 18.38,1.28 L17.84,4.02 C19.64,4.62 21.34,5.56 22.8,6.8 L22.84,6.84 C23.22,7.24 23.22,7.84 22.84,8.2 Z" id="Shape"></path>
        </g>
    </g>
</svg>