<?xml version="1.0" encoding="UTF-8"?>
<svg width="120px" height="120px" viewBox="0 0 120 120" version="1.1" xmlns="http://www.w3.org/2000/svg" xmlns:xlink="http://www.w3.org/1999/xlink">
    <!-- Generator: Sketch 61.2 (89653) - https://sketch.com -->
    <title>Contacts</title>
    <desc>Created with Sketch.</desc>
    <g id="Contacts" stroke="none" stroke-width="1" fill="none" fill-rule="evenodd">
        <rect fill="#000000" x="0" y="0" width="120" height="120"></rect>
        <rect id="Rectangle" fill="#000000" fill-rule="nonzero" style="mix-blend-mode: multiply;" x="0" y="0" width="120" height="119.220779" rx="26"></rect>
        <g id="contacts-book-2-line" transform="translate(36.000000, 36.000000)">
            <polygon id="Path" points="0 0 48 0 48 48 0 48"></polygon>
            <path d="M40,44 L12,44 C8.6862915,44 6,41.3137085 6,38 L6,10 C6,6.6862915 8.6862915,4 12,4 L40,4 C41.1045695,4 42,4.8954305 42,6 L42,42 C42,43.1045695 41.1045695,44 40,44 Z M38,40 L38,36 L12,36 C10.8954305,36 10,36.8954305 10,38 C10,39.1045695 10.8954305,40 12,40 L38,40 Z M10,32.34 C10.626,32.12 11.3,32 12,32 L38,32 L38,8 L12,8 C10.8954305,8 10,8.8954305 10,10 L10,32.34 Z M24,20 C21.790861,20 20,18.209139 20,16 C20,13.790861 21.790861,12 24,12 C26.209139,12 28,13.790861 28,16 C28,18.209139 26.209139,20 24,20 Z M18,28 C18,24.6862915 20.6862915,22 24,22 C27.3137085,22 30,24.6862915 30,28 L18,28 L18,28 Z" id="Shape" fill="#FFFFFF" fill-rule="nonzero"></path>
        </g>
    </g>
</svg>