<?xml version="1.0" encoding="UTF-8"?>
<svg width="120px" height="120px" viewBox="0 0 120 120" version="1.1" xmlns="http://www.w3.org/2000/svg" xmlns:xlink="http://www.w3.org/1999/xlink">
    <!-- Generator: Sketch 61.2 (89653) - https://sketch.com -->
    <title>Discord</title>
    <desc>Created with Sketch.</desc>
    <g id="Discord" stroke="none" stroke-width="1" fill="none" fill-rule="evenodd">
        <rect fill="#000000" x="0" y="0" width="120" height="120"></rect>
        <path d="M52.3999501,58.7636279 C54.8470951,58.7636279 56.8292825,60.600328 56.7844182,62.8451836 C56.7844182,65.0900393 54.8511736,66.9267393 52.3999501,66.9267393 C49.9935908,66.9267393 48.0114034,65.0900393 48.0114034,62.8451836 C48.0114034,60.600328 49.9487265,58.7636279 52.3999501,58.7636279 Z M68.0943066,58.7636279 C70.5455302,58.7636279 72.4828533,60.600328 72.4828533,62.8451836 C72.4828533,65.0900393 70.5455302,66.9267393 68.0943066,66.9267393 C65.6879474,66.9267393 63.7098385,65.0900393 63.7098385,62.8451836 C63.7098385,60.600328 65.6430831,58.7636279 68.0943066,58.7636279 Z M72.1606459,78 C81.4312469,77.7020464 85,71.4858371 85,71.4858371 C85,57.6860972 78.9555519,46.4985529 78.9555519,46.4985529 C72.9192609,41.8741503 67.1684701,42.0003379 67.1684701,42.0003379 L66.5811553,42.6863799 C73.714583,44.9149093 77.0263859,48.1311752 77.0263859,48.1311752 C73.1316245,45.9352492 68.8392178,44.5367 64.3991177,44.0169671 C61.5826105,43.6986212 58.7377765,43.7260349 55.9279174,44.0985982 C55.6750458,44.0985982 55.4629599,44.1434953 55.2141668,44.1843108 C53.7458798,44.3149206 50.1771267,44.8700122 45.6906942,46.8863007 C44.1408357,47.6128177 43.2149992,48.1311752 43.2149992,48.1311752 C43.2149992,48.1311752 46.6981022,44.743484 54.2475445,42.5149546 L53.8274513,42.0003379 C53.8274513,42.0003379 48.0807391,41.8741503 42.0403696,46.5026345 C42.0403696,46.5026345 36,57.6860972 36,71.4858371 C36,71.4858371 39.5238888,77.6979649 48.7944898,78 C48.7944898,78 50.3443483,76.0735057 51.6087065,74.444965 C46.278009,72.8123427 44.2672715,69.3838359 44.2672715,69.3838359 C44.2672715,69.3838359 44.6832862,69.685871 45.4378225,70.1144343 C45.4786083,70.1552499 45.519394,70.200147 45.6050441,70.2409626 C45.7314799,70.3307568 45.8579158,70.3715724 45.9843516,70.457285 C47.0325454,71.0572737 48.0807391,71.5266526 49.0432828,71.9144004 C50.7644415,72.6001018 52.8200433,73.2858031 55.2141668,73.7592636 C58.8005359,74.4627608 62.4879449,74.4766126 66.0794906,73.8000792 C68.171463,73.4264231 70.2124464,72.8086121 72.1606459,71.9592975 C73.6289329,71.4001244 75.2644415,70.5838133 76.9856001,69.428733 C76.9856001,69.428733 74.8892126,72.9429525 69.3912935,74.5306776 C70.6515732,76.1592184 72.1647245,78 72.1647245,78 L72.1606459,78 Z" id="Shape" fill="#FFFFFF" fill-rule="nonzero"></path>
    </g>
</svg>