<?xml version="1.0" encoding="UTF-8"?>
<svg width="120px" height="120px" viewBox="0 0 120 120" version="1.1" xmlns="http://www.w3.org/2000/svg" xmlns:xlink="http://www.w3.org/1999/xlink">
    <!-- Generator: Sketch 61.2 (89653) - https://sketch.com -->
    <title>Disney+</title>
    <desc>Created with Sketch.</desc>
    <g id="Disney+" stroke="none" stroke-width="1" fill="none" fill-rule="evenodd">
        <rect fill="#000000" x="0" y="0" width="120" height="120"></rect>
        <g id="disneyland-castle" transform="translate(39.000000, 34.000000)" fill="#FFFFFF" fill-rule="nonzero">
            <path d="M39.6450792,33.6948874 L39.6450792,31.6602226 L40.036262,31.6602226 L40.036262,28.888057 L40.7351754,28.888057 C40.3022664,28.2630122 39.512077,27.0809189 39.1104626,26.1655813 C38.5367277,24.8631865 37.9160509,23.1580432 37.9160509,23.1580432 L37.9160509,21.4267473 C38.2576839,21.4502846 38.7610059,21.4973591 39.3399565,21.5967386 C40.3413847,21.7719604 41.1028873,20.8147787 41.1028873,20.8147787 C41.1028873,20.8147787 39.8589258,21.2070663 39.170444,20.5532537 C38.7610059,20.1714271 38.2681155,20.0903543 37.9212667,20.0798933 L37.9212667,20.0197426 L37.5405154,20.0197426 L37.5405154,20.0903543 C37.5248681,20.0903543 37.4857498,20.0982001 37.4857498,20.0982001 L37.5092207,21.4032101 L37.5431233,21.4058253 L37.5431233,23.2025024 L37.5274759,23.2025024 C37.5274759,23.2025024 36.9354859,24.868417 36.3513195,26.1681965 C35.9601366,27.0809189 35.1699472,28.2630122 34.7318224,28.8906723 L35.4281279,28.8906723 L35.4281279,31.6628378 L35.8193108,31.6628378 L35.8193108,33.6975027 L31.5162993,33.7576535 L31.5162993,24.5310497 L32.0065818,24.5310497 L32.5255511,23.5921748 L32.5255511,21.047536 L30.882583,21.047536 L30.882583,16.3217784 L31.112077,16.3217784 L31.5110835,15.6208912 L31.5110835,13.7091431 L30.564421,13.7091431 L30.564421,9.99025691 L32.0613474,9.99025691 C31.7040671,9.46982206 28.897982,4.6917594 28.7467246,3.97779601 C28.9318845,3.88626224 29.0596709,3.71888621 29.0596709,3.52012717 C29.0596709,3.27167838 28.8771189,3.07030409 28.6163303,3.01015333 L28.6163303,1.91174812 C28.9866501,1.93005487 29.8602918,1.98759038 30.8512884,2.15758166 C32.1552313,2.38772371 33.1514437,1.13240347 33.1514437,1.13240347 C33.1514437,1.13240347 31.5319466,1.64499256 30.6217945,0.789805651 C29.9307048,0.143838777 29.0205526,0.133377775 28.6111146,0.164760781 L28.6111146,0 L28.2016765,0 L28.2016765,3.01015333 C27.9408879,3.07030409 27.7583359,3.27167838 27.7583359,3.52012717 C27.7583359,3.71888621 27.8835144,3.88626224 28.0582428,3.97779601 C27.9200248,4.6917594 25.1243713,9.46982206 24.7618752,9.99025691 L26.2483701,9.99025691 L26.2483701,13.7065279 L25.3303943,13.7065279 L25.3303943,15.618276 L25.7137535,16.3217784 L25.9484632,16.3217784 L25.9484632,21.047536 L24.3028873,21.047536 L24.3028873,23.5921748 L24.8244645,24.5310497 L25.3303943,24.5310497 L25.3303943,27.1515307 L22.871158,23.5032562 L22.871158,20.7049382 L21.4889786,20.7049382 L21.4889786,21.7327317 C21.2177585,21.1678375 20.9204595,20.5087944 20.7352996,19.9386698 C20.3258615,18.6938106 19.9633654,17.0932773 19.9633654,17.0932773 L19.8694815,17.0932773 L19.8694815,16.4708476 C20.1824278,16.4891544 20.7352996,16.5362289 21.3846631,16.6486847 C22.3443651,16.818676 23.0797889,15.890262 23.0797889,15.890262 C23.0797889,15.890262 21.8827693,16.2694734 21.2099348,15.6365827 C20.5423161,15.0063074 19.5747904,15.1946054 19.5747904,15.1946054 L19.5800062,15.5005897 L19.5800062,17.0932773 L19.5252406,17.0932773 C19.5252406,17.0932773 19.173176,18.6938106 18.763738,19.9386698 C18.4794784,20.8147787 17.9057436,21.9576432 17.6006209,22.5643813 L18.1795716,22.5643813 L18.1795716,30.7631916 L16.5157405,30.7631916 C16.1923626,30.1041485 15.772493,29.1940413 15.5299596,28.4591559 C15.0944427,27.1253782 14.7162993,25.4097739 14.7162993,25.4097739 L14.677181,25.4097739 L14.677181,22.7029896 L14.2781745,22.7029896 L14.2781745,25.4123891 L14.2390562,25.4123891 C14.2390562,25.4123891 13.8583049,27.1227629 13.4201801,28.4617712 C13.1150574,29.3954156 12.5152437,30.6271986 12.1762186,31.2653197 L12.7995033,31.2653197 L12.7995033,37.9472848 L10.1655387,37.9472848 L10.1655387,34.7200656 L10.7653524,34.7200656 L10.7653524,29.8766217 L11.8111146,29.8766217 C11.1513195,29.2175786 9.96212356,27.9544126 9.35448618,26.9893852 C8.491276,25.6085329 7.58112387,23.8432388 7.58112387,23.8432388 L7.5576529,23.8432388 L7.5576529,21.4895134 C7.86799131,21.5156659 8.26438994,21.5601251 8.69990686,21.6359674 C9.6622167,21.8059587 10.3976405,20.88016 10.3976405,20.88016 C10.3976405,20.88016 9.19801304,21.2567561 8.53039429,20.6264807 C7.86538342,19.9935901 6.90046569,20.1818881 6.90046569,20.1818881 L6.91872089,21.4424388 L6.97087861,21.4450541 L6.97087861,23.8406236 L6.95523129,23.8406236 C6.95523129,23.8406236 6.05029494,25.6033024 5.17404533,26.9867699 C4.57683949,27.9517973 3.37981993,29.2175786 2.72002484,29.8740065 L3.75796337,29.8740065 L3.75796337,34.7174504 L4.36299286,34.7174504 L4.36299286,38.2794216 L0,38.2794216 L0,50.9738475 L17.6162682,50.9738475 L17.6162682,45.6936567 C17.6162682,45.6936567 17.7962124,41.5484847 21.8619062,41.5484847 C25.9197765,41.5484847 26.0710338,45.6936567 26.0710338,45.6936567 L26.0710338,50.9738475 L34.3380317,50.9738475 L34.3380317,51 L42,51 L42,33.6948874 L39.6450792,33.6948874 L39.6450792,33.6948874 Z M29.2448308,19.6771448 L27.4923316,19.6771448 L27.4923316,17.1246603 C27.4923316,17.1246603 27.6122943,16.4159274 28.3529339,16.4159274 C29.0883577,16.4159274 29.2448308,17.1246603 29.2448308,17.1246603 L29.2448308,19.6771448 Z" id="Shape"></path>
        </g>
    </g>
</svg>