<?xml version="1.0" encoding="UTF-8"?>
<svg width="120px" height="120px" viewBox="0 0 120 120" version="1.1" xmlns="http://www.w3.org/2000/svg" xmlns:xlink="http://www.w3.org/1999/xlink">
    <!-- Generator: Sketch 61.2 (89653) - https://sketch.com -->
    <title>Ebay</title>
    <desc>Created with Sketch.</desc>
    <g id="Ebay" stroke="none" stroke-width="1" fill="none" fill-rule="evenodd">
        <rect fill="#000000" x="0" y="0" width="120" height="120"></rect>
        <g id="symbols" transform="translate(29.000000, 48.000000)" fill="#FFFFFF" fill-rule="nonzero">
            <path d="M59.6092164,6.02843787 L59.6092164,6.02704658 L54.251132,16.681507 L48.8789954,6.02426401 L45.1355029,6.02426401 L46.0938594,7.80232623 C44.8277608,5.93104792 42.3278835,5.45522845 40.043004,5.45522845 C33.3569915,5.45522845 32.9298062,9.07952585 32.9298062,9.65830041 L36.2559499,9.65830041 C36.2559499,9.65830041 36.4301965,7.54215594 39.8125488,7.54215594 C42.0103049,7.54215594 43.7120202,8.53831599 43.7120202,10.4527241 L43.7120202,11.1344538 L39.8125488,11.1344538 C35.4887025,11.1344538 32.8693819,12.1807001 32.1189972,14.2968446 C32.196284,13.8293728 32.2370352,13.3410318 32.2370352,12.8373866 C32.2370352,8.76787801 29.4659514,5.49557571 24.787991,5.49557571 C20.4051257,5.49557571 19.0434724,7.83849964 19.0434724,7.83849964 L19.0434724,0 L15.8311512,0 L15.8311512,11.9288775 C15.7833739,9.33691357 14.0858742,5.45383716 8.14603083,5.45383716 C3.70133607,5.45661973 0,7.32094162 0,12.9570371 C0,17.4188881 2.49004082,20.2292838 8.26125845,20.2292838 C15.0540673,20.2292838 15.4896839,15.7966498 15.4896839,15.7966498 L12.1986706,15.7966498 C12.1986706,15.7966498 11.4932527,18.1827035 8.06031272,18.1827035 C5.26534026,18.1827035 3.25447773,16.3114252 3.25447773,13.6916356 L15.8325564,13.6916356 L15.8325564,17.3980188 C15.8325564,18.3844399 15.7622956,19.7729423 15.7622956,19.7729423 L18.9015457,19.7729423 C18.9015457,19.7729423 19.0139629,18.7767822 19.0139629,17.8654906 C19.0139629,17.8654906 20.5653202,20.269631 24.7823701,20.269631 C28.3797203,20.269631 31.0426025,18.2675719 31.9236723,15.1830931 C31.9068097,15.3458734 31.8969732,15.5114364 31.8969732,15.6825644 C31.8969732,18.678001 34.42636,20.308587 37.8452479,20.308587 C42.5049406,20.308587 44.0071153,17.7597529 44.0071153,17.7597529 C44.0071153,18.7739997 44.0872125,19.7729423 44.0872125,19.7729423 L47.0437847,19.7729423 C47.0437847,19.7729423 46.9285571,18.5319161 46.9285571,17.7430575 L46.9285571,10.8951528 C46.9285571,9.97829595 46.7767939,9.21308921 46.5041822,8.57031554 L52.5002342,19.7117257 L49.6813731,25 L53.2365668,25 L63,6.02843787 L59.6092164,6.02843787 L59.6092164,6.02843787 Z M3.32895412,11.5949691 C3.32895412,9.02665702 5.69674124,7.56302521 8.03220842,7.56302521 C10.6936855,7.56302521 12.5078179,9.1769158 12.5078179,11.5949691 L3.32895412,11.5949691 Z M24.0010706,18.1200957 C20.7817233,18.1200957 19.0448777,15.6310869 19.0448777,12.87356 C19.0448777,10.3038566 20.603261,7.65485002 23.9799924,7.65485002 C26.9955836,7.65485002 28.913702,9.87116701 28.913702,12.8429518 C28.913702,16.0331682 26.697678,18.1200957 24.0010706,18.1200957 Z M43.7148306,14.0923257 C43.7148306,15.2804831 42.9756876,18.2258334 38.6265474,18.2258334 C36.2447081,18.2258334 35.2231169,17.0488063 35.2231169,15.685347 C35.2231169,13.2019033 38.6616778,13.1879904 43.7148306,13.1879904 L43.7148306,14.0923257 Z" id="Shape"></path>
        </g>
    </g>
</svg>