<?xml version="1.0" encoding="UTF-8"?>
<svg width="120px" height="120px" viewBox="0 0 120 120" version="1.1" xmlns="http://www.w3.org/2000/svg" xmlns:xlink="http://www.w3.org/1999/xlink">
    <!-- Generator: Sketch 61.2 (89653) - https://sketch.com -->
    <title>Figma</title>
    <desc>Created with Sketch.</desc>
    <g id="Figma" stroke="none" stroke-width="1" fill="none" fill-rule="evenodd">
        <rect fill="#000000" x="0" y="0" width="120" height="120"></rect>
        <g>
            <rect id="Rectangle" fill="#000000" fill-rule="nonzero" style="mix-blend-mode: multiply;" x="0" y="-4.26325641e-14" width="120" height="119.220779" rx="26"></rect>
            <g id="figma" transform="translate(46.000000, 38.746753)" stroke="#FFFFFF" stroke-linecap="round" stroke-linejoin="round" stroke-width="4">
                <path d="M-1.77635684e-15,6.95454545 C-1.77635684e-15,3.11365606 3.13400675,0 7,0 L14,0 L14,13.9090909 L7,13.9090909 C3.13400675,13.9090909 -1.77635684e-15,10.7954349 -1.77635684e-15,6.95454545 Z" id="Path"></path>
                <path d="M14,0 L21,0 C23.5008592,0 25.8117483,1.32552883 27.0621779,3.4772727 C28.3126075,5.62901656 28.3126075,8.28007434 27.0621779,10.4318182 C25.8117483,12.5835621 23.5008592,13.9090909 21,13.9090909 L14,13.9090909 L14,0 Z" id="Path"></path>
                <path d="M14,20.8636364 C14,18.3790165 15.3341924,16.0831331 17.5,14.8408232 C19.6658075,13.5985133 22.3341925,13.5985133 24.5,14.8408232 C26.6658076,16.0831331 28,18.3790165 28,20.8636364 C28,23.3482562 26.6658076,25.6441396 24.5,26.8864495 C22.3341925,28.1287594 19.6658075,28.1287594 17.5,26.8864495 C15.3341924,25.6441396 14,23.3482562 14,20.8636364 L14,20.8636364 Z" id="Path"></path>
                <path d="M-1.77635684e-15,34.7727273 C-1.77635684e-15,30.9318379 3.13400675,27.8181818 7,27.8181818 L14,27.8181818 L14,34.7727273 C14,38.6136167 10.8659932,41.7272727 7,41.7272727 C3.13400675,41.7272727 -1.77635684e-15,38.6136167 -1.77635684e-15,34.7727273 Z" id="Path"></path>
                <path d="M-1.77635684e-15,20.8636364 C-1.77635684e-15,17.022747 3.13400675,13.9090909 7,13.9090909 L14,13.9090909 L14,27.8181818 L7,27.8181818 C3.13400675,27.8181818 -1.77635684e-15,24.7045258 -1.77635684e-15,20.8636364 Z" id="Path"></path>
            </g>
        </g>
    </g>
</svg>