<?xml version="1.0" encoding="UTF-8"?>
<svg width="120px" height="120px" viewBox="0 0 120 120" version="1.1" xmlns="http://www.w3.org/2000/svg" xmlns:xlink="http://www.w3.org/1999/xlink">
    <!-- Generator: Sketch 61.2 (89653) - https://sketch.com -->
    <title>Files</title>
    <desc>Created with Sketch.</desc>
    <g id="Files" stroke="none" stroke-width="1" fill="none" fill-rule="evenodd">
        <rect fill="#000000" x="0" y="0" width="120" height="120"></rect>
        <g id="folder-outline" transform="translate(39.000000, 40.000000)" stroke="#FFFFFF" stroke-linecap="round" stroke-linejoin="round">
            <path d="M38.25,33 L3.75,33 C1.67893219,33 0,31.3210678 0,29.25 L0,3.75 C0,1.67893219 1.67893219,0 3.75,0 L10.8646875,0 C11.6051143,0 12.3289649,0.219229272 12.945,0.63 L15.555,2.37 C16.1710351,2.78077073 16.8948857,2.99998102 17.6353125,3 L38.25,3 C40.3210678,3 42,4.67893219 42,6.75 L42,29.25 C42,31.3210678 40.3210678,33 38.25,33 Z" id="Path" stroke-width="3"></path>
            <line x1="0" y1="10.503125" x2="42" y2="10.503125" id="Path" stroke-width="2.2"></line>
        </g>
    </g>
</svg>