<?xml version="1.0" encoding="UTF-8"?>
<svg width="120px" height="120px" viewBox="0 0 120 120" version="1.1" xmlns="http://www.w3.org/2000/svg" xmlns:xlink="http://www.w3.org/1999/xlink">
    <!-- Generator: Sketch 61.2 (89653) - https://sketch.com -->
    <title>Find My</title>
    <desc>Created with Sketch.</desc>
    <g id="Find-My" stroke="none" stroke-width="1" fill="none" fill-rule="evenodd">
        <rect fill="#000000" x="0" y="0" width="120" height="120"></rect>
        <g id="radar" transform="translate(39.000000, 39.000000)" fill="#FFFFFF" fill-rule="nonzero">
            <path d="M40.7695312,19.7694492 C40.0899844,19.7694492 39.5390625,20.3203711 39.5390625,20.999918 C39.5390625,31.2224883 31.2225703,39.5391445 21.0001641,39.5391445 C10.7778398,39.5389805 2.46118359,31.2224062 2.4609375,21.000082 C2.46118359,10.7775937 10.7776758,2.46101953 20.9998359,2.46101953 C25.5393633,2.4609375 29.8291875,4.08244922 33.2098594,7.04984766 L29.3469258,10.9128633 C27.0040313,8.96724609 24.0835547,7.90789453 21.0001641,7.90789453 C13.7810859,7.90789453 7.90797656,13.7810039 7.90797656,21.000082 C7.90797656,28.2191602 13.7810859,34.0922695 21.0001641,34.0922695 C28.2191602,34.0922695 34.0922695,28.2191602 34.0922695,21.000082 C34.0922695,20.3205352 33.5413477,19.7696133 32.8618008,19.7696133 C32.1822539,19.7696133 31.631332,20.3205352 31.631332,21.000082 C31.631332,26.8621172 26.8621992,31.631332 21.0001641,31.631332 C15.1380469,31.631332 10.3689141,26.8621992 10.3689141,21.000082 C10.3689141,15.1379648 15.1380469,10.368832 21.0001641,10.368832 C23.4253359,10.368832 25.7263945,11.1761016 27.5973633,12.6625078 L23.6920195,16.5679336 C22.8887695,16.078125 21.9646055,15.815707 20.9996719,15.8157891 C18.1411289,15.8157891 15.815543,18.141457 15.815543,21 C15.815543,23.858625 18.141293,26.184293 20.999918,26.184293 C23.858543,26.184293 26.184293,23.858707 26.184293,21.0001641 C26.184293,20.0353945 25.921875,19.1113125 25.4320664,18.3080625 L35.8490508,7.89091406 C36.0893203,7.6505625 36.2094141,7.33564453 36.2094141,7.02072656 C36.2094141,6.70572656 36.0893203,6.39072656 35.8490508,6.15045703 C31.8826758,2.18416406 26.6091328,8.203125e-05 20.9998359,8.203125e-05 C15.3907031,8.203125e-05 10.1171602,2.18449219 6.15086719,6.15078516 C2.18449219,10.1170781 0,15.3907852 0,21.000082 C0,26.6092969 2.18457422,31.8827578 6.15086719,35.8491328 C10.1172422,39.8155078 15.3907852,42 21.0001641,42 C26.6093789,42 31.8828398,39.8155898 35.8492148,35.8492148 C39.8155898,31.8826758 42,26.6092148 42,20.999918 C42,20.3203711 41.4490781,19.7694492 40.7695312,19.7694492 Z M21,23.7233555 C19.4982539,23.7233555 18.2765625,22.5016641 18.2765625,21 C18.2765625,19.4983359 19.4981719,18.2767265 21.000082,18.2767265 C21.7273711,18.2766445 22.4111836,18.5598164 22.9255195,19.0740703 C22.9256016,19.0741523 22.9257656,19.0742344 22.9258477,19.0743164 C22.9259297,19.0743984 22.9260117,19.0744805 22.9260937,19.0745625 C23.4402656,19.5888984 23.7235195,20.2727109 23.7235195,21.0001641 C23.7234375,22.5018281 22.5017461,23.7233555 21,23.7233555 Z" id="Shape"></path>
        </g>
    </g>
</svg>