<?xml version="1.0" encoding="UTF-8"?>
<svg width="120px" height="120px" viewBox="0 0 120 120" version="1.1" xmlns="http://www.w3.org/2000/svg" xmlns:xlink="http://www.w3.org/1999/xlink">
    <!-- Generator: Sketch 61.2 (89653) - https://sketch.com -->
    <title>Firefox</title>
    <desc>Created with Sketch.</desc>
    <g id="Firefox" stroke="none" stroke-width="1" fill="none" fill-rule="evenodd">
        <rect fill="#000000" x="0" y="0" width="120" height="120"></rect>
        <g id="firefox-fill" transform="translate(36.000000, 36.000000)">
            <polygon id="Path" points="0 0 48 0 48 48 0 48"></polygon>
            <path d="M24,4 C35.046,4 44,12.954 44,24 C44,35.046 35.046,44 24,44 C12.954,44 4,35.046 4,24 C4,21.072 4.628,18.292 5.76,15.788 C6.692,13.91 8.226,12.04 9.46,11.4 C8.154,13.966 7.514,16.48 7.38,18.166 C8.288,15.166 10.01,12.652 12.42,10.878 C16.552,7.84 22.116,7.704 24.332,9.638 C20.22,11.052 15.74,16.734 16.726,23.39 C16.886,24.49 17.216,25.558 17.704,26.554 C16.936,24.534 16.868,21.688 18.108,19.838 C19.492,17.778 21.464,17.342 22.52,17.566 C22.104,17.478 21.184,19.238 21.048,19.548 C20.702,20.336 20.53,21.188 20.546,22.048 C20.5757392,23.8447475 21.3165127,25.5564376 22.606,26.808 C26.45,30.55 32.652,29.078 35.43,24.804 C37.336,21.862 37.568,16.868 35.12,12.9 C34.5092112,11.9337866 33.7809906,11.0470235 32.952,10.26 C29.252,6.728 23.992,5.12 18.988,5.85 C16.776,6.204 14.894,6.842 13.34,7.762 C15.51,5.596 19.82,4 24,4 Z" id="Path" fill="#FFFFFF" fill-rule="nonzero"></path>
        </g>
    </g>
</svg>