<?xml version="1.0" encoding="UTF-8"?>
<svg width="120px" height="120px" viewBox="0 0 120 120" version="1.1" xmlns="http://www.w3.org/2000/svg" xmlns:xlink="http://www.w3.org/1999/xlink">
    <!-- Generator: Sketch 61.2 (89653) - https://sketch.com -->
    <title>iMessage</title>
    <desc>Created with Sketch.</desc>
    <g id="iMessage" stroke="none" stroke-width="1" fill="none" fill-rule="evenodd">
        <rect fill="#000000" x="0" y="0" width="120" height="120"></rect>
        <g id="Imessage" fill-rule="nonzero">
            <rect id="Rectangle" fill="#000000" style="mix-blend-mode: multiply;" x="0" y="-4.26325641e-14" width="120" height="119.220779" rx="26"></rect>
            <path d="M85.8156925,74.2968819 L82.8421284,65.6991714 C84.2754629,62.7881317 85.0329283,59.5506407 85.038028,56.293181 C85.0468276,50.6291613 82.8411284,45.2737105 78.8271118,41.213435 C74.8122952,37.1523647 69.4623397,34.8663113 63.7626001,34.7766018 C57.8523701,34.6838125 52.2970239,36.9173118 48.1205148,41.0666014 C44.0932988,45.0675673 41.8596008,50.3421503 41.788904,55.9786513 C37.8196854,58.9477091 35.4768924,63.5767411 35.4845921,68.5210977 C35.4882919,70.8348686 36.012468,73.1348304 37.0057226,75.2146412 L34.9575162,81.1364642 C34.6054322,82.1544638 34.8626205,83.2597886 35.6287855,84.0209785 C36.1679609,84.5567521 36.8788284,84.8419747 37.609895,84.8419747 C37.9174809,84.8419747 38.2286667,84.7915069 38.5321528,84.6878889 L44.4927805,82.6529825 C46.5861849,83.6397875 48.9011791,84.1605598 51.2300727,84.1642356 C51.2384723,84.1642356 51.2464719,84.1642356 51.2548716,84.1642356 C56.3056408,84.1640369 61.0004263,81.7764518 63.9779902,77.7363435 C67.0765487,77.6552771 70.1423086,76.9100819 72.913882,75.563048 L81.5678866,78.5174027 C81.9284701,78.6404925 82.2982532,78.7004975 82.6637365,78.7004975 C83.5324968,78.7004975 84.3772582,78.3615286 85.0181289,77.72472 C85.9284874,76.8201737 86.2340734,75.5067188 85.8156925,74.2968819 Z M51.2546716,81.1365635 C51.2481719,81.1365635 51.2412722,81.1365635 51.2347725,81.1365635 C49.1734666,81.1334838 47.1264602,80.6286068 45.3154429,79.6766724 C44.9430599,79.4810599 44.5058799,79.4471829 44.1076981,79.5830884 L37.9956773,81.6696547 L40.0958814,75.5974218 C40.2326751,75.2017262 40.1986767,74.767385 40.0016857,74.3975195 C39.0435295,72.5981627 38.5353527,70.5645478 38.5321528,68.5165278 C38.5270531,65.2223101 39.8168941,62.0999612 42.0724911,59.7619498 C42.8092574,64.2241797 44.9498596,68.3361152 48.267908,71.5740037 C51.5614575,74.7879497 55.7014684,76.8342809 60.1684643,77.5032776 C57.8097721,79.8129753 54.6303173,81.1365635 51.2546716,81.1365635 Z M82.8630274,75.5838114 C82.7763314,75.6699444 82.6735361,75.6933901 82.5579414,75.6538504 L73.2935646,72.4910676 C73.132672,72.4361292 72.9652796,72.4089084 72.7984873,72.4089084 C72.5525985,72.4089084 72.3076097,72.4680193 72.0859198,72.5846516 C69.4407407,73.9749011 66.4516772,74.7122479 63.4416148,74.7168179 C63.4317152,74.7168179 63.4227156,74.7168179 63.4128161,74.7168179 C53.3269769,74.7168179 44.9960575,66.5769937 44.8362648,56.5590312 C44.7557685,51.513739 46.6874802,46.7720485 50.2754163,43.2074107 C53.8633524,39.6427729 58.6368343,37.7243002 63.7144023,37.8037771 C73.8075411,37.9628302 82.0061666,46.254952 81.9905673,56.2884124 C81.9858675,59.278929 81.2438014,62.2486823 79.8445653,64.8764863 C79.6475743,65.2463519 79.6135759,65.680693 79.7503696,66.0763886 L82.9337242,75.280607 C82.9734224,75.3958485 82.9496235,75.497877 82.8630274,75.5838114 Z" id="Shape" fill="#FFFFFF" transform="translate(60.401212, 59.807899) scale(-1, 1) translate(-60.401212, -59.807899) "></path>
        </g>
    </g>
</svg>