<?xml version="1.0" encoding="UTF-8"?>
<svg width="120px" height="120px" viewBox="0 0 120 120" version="1.1" xmlns="http://www.w3.org/2000/svg" xmlns:xlink="http://www.w3.org/1999/xlink">
    <!-- Generator: Sketch 61.2 (89653) - https://sketch.com -->
    <title>Instagram</title>
    <desc>Created with Sketch.</desc>
    <g id="Instagram" stroke="none" stroke-width="1" fill="none" fill-rule="evenodd">
        <rect fill="#000000" x="0" y="0" width="120" height="120"></rect>
        <g id="instagram-line" transform="translate(40.000000, 40.000000)" fill="#FFFFFF" fill-rule="nonzero">
            <path d="M20,14 C16.6862915,14 14,16.6862915 14,20 C14,23.3137085 16.6862915,26 20,26 C23.3137085,26 26,23.3137085 26,20 C26,16.6862915 23.3137085,14 20,14 Z M20,10 C25.5228475,10 30,14.4771525 30,20 C30,25.5228475 25.5228475,30 20,30 C14.4771525,30 10,25.5228475 10,20 C10,14.4771525 14.4771525,10 20,10 L20,10 Z M33,9.5 C33,10.8807119 31.8807119,12 30.5,12 C29.1192881,12 28,10.8807119 28,9.5 C28,8.11928813 29.1192881,7 30.5,7 C31.8807119,7 33,8.11928813 33,9.5 Z M20,4 C15.052,4 14.244,4.014 11.942,4.116 C10.374,4.19 9.322,4.4 8.346,4.78 C7.478,5.116 6.852,5.518 6.186,6.186 C5.56001372,6.7907982 5.07870634,7.52916748 4.778,8.346 C4.398,9.326 4.188,10.376 4.116,11.942 C4.012,14.15 4,14.922 4,20 C4,24.948 4.014,25.756 4.116,28.058 C4.19,29.624 4.4,30.678 4.778,31.652 C5.118,32.522 5.518,33.148 6.182,33.812 C6.856,34.484 7.482,34.886 8.342,35.218 C9.33,35.6 10.382,35.812 11.942,35.884 C14.15,35.988 14.922,36 20,36 C24.948,36 25.756,35.986 28.058,35.884 C29.622,35.81 30.676,35.6 31.652,35.222 C32.518,34.884 33.148,34.482 33.812,33.818 C34.486,33.144 34.888,32.518 35.22,31.658 C35.6,30.672 35.812,29.618 35.884,28.058 C35.988,25.85 36,25.078 36,20 C36,15.052 35.986,14.244 35.884,11.942 C35.81,10.378 35.6,9.322 35.22,8.346 C34.9185852,7.53000367 34.438148,6.79192091 33.814,6.186 C33.2094673,5.55969217 32.4710196,5.07833362 31.654,4.778 C30.674,4.398 29.622,4.188 28.058,4.116 C25.85,4.012 25.078,4 20,4 Z M20,0 C25.434,0 26.112,0.02 28.244,0.12 C30.374,0.22 31.824,0.554 33.1,1.05 C34.42,1.558 35.532,2.246 36.644,3.356 C37.6609873,4.35579192 38.4479072,5.56517792 38.95,6.9 C39.444,8.174 39.78,9.626 39.88,11.756 C39.974,13.888 40,14.566 40,20 C40,25.434 39.98,26.112 39.88,28.244 C39.78,30.374 39.444,31.824 38.95,33.1 C38.4493532,34.435553 37.6622414,35.645234 36.644,36.644 C35.6439229,37.6606385 34.4346187,38.4475052 33.1,38.95 C31.826,39.444 30.374,39.78 28.244,39.88 C26.112,39.974 25.434,40 20,40 C14.566,40 13.888,39.98 11.756,39.88 C9.626,39.78 8.176,39.444 6.9,38.95 C5.56465235,38.4489467 4.35505444,37.661889 3.356,36.644 C2.33881287,35.6443714 1.55186247,34.4349386 1.05,33.1 C0.554,31.826 0.22,30.374 0.12,28.244 C0.026,26.112 0,25.434 0,20 C0,14.566 0.02,13.888 0.12,11.756 C0.22,9.624 0.554,8.176 1.05,6.9 C1.55047221,5.56435881 2.33760728,4.35464212 3.356,3.356 C4.35534195,2.33846246 5.56485717,1.55145848 6.9,1.05 C8.176,0.554 9.624,0.22 11.756,0.12 C13.888,0.026 14.566,0 20,0 Z" id="Shape"></path>
        </g>
    </g>
</svg>