<?xml version="1.0" encoding="UTF-8"?>
<svg width="120px" height="120px" viewBox="0 0 120 120" version="1.1" xmlns="http://www.w3.org/2000/svg" xmlns:xlink="http://www.w3.org/1999/xlink">
    <!-- Generator: Sketch 61.2 (89653) - https://sketch.com -->
    <title>Netflix</title>
    <desc>Created with Sketch.</desc>
    <g id="Netflix" stroke="none" stroke-width="1" fill="none" fill-rule="evenodd">
        <rect fill="#000000" x="0" y="0" width="120" height="120"></rect>
        <g id="shazam" transform="translate(34.000000, 34.000000)" fill="#FFFFFF" fill-rule="nonzero">
            <path d="M25.6,0 C11.4576,0 0,11.4576 0,25.6 C0,39.7328 11.4576,51.2 25.6,51.2 C39.7424,51.2 51.2,39.7328 51.2,25.6 C51.2,11.4576 39.7424,0 25.6,0 Z M21.0576,35.7008 C18.3152,35.7008 15.5744,34.792 13.4656,32.968 C10.8736,30.7344 9.3408,27.6848 9.1328,24.384 C8.9404565,21.1965391 10.0469289,18.0670172 12.2,15.7088 C14.6336,13.0176 19,8.8336 19.184,8.6512 C19.7537855,8.10654222 20.5169154,7.81105288 21.3049192,7.82996497 C22.092923,7.84887706 22.840999,8.18063534 23.384,8.752 C24.5088,9.936 24.4752,11.8192 23.2832,12.952 C23.2416,12.9936 18.8912,17.168 16.592,19.7024 C15.5204576,20.8793286 14.9679743,22.438162 15.0592,24.0272 C15.168,25.7104 15.976,27.2848 17.3424,28.4768 C19.1424,30.0352 22.7008,30.3776 24.9264,28.3856 C25.9455914,27.4384085 26.9271495,26.451513 27.8688,25.4272 C28.4014859,24.8472844 29.1433864,24.5036617 29.9302033,24.4724293 C30.7170202,24.4411969 31.4838235,24.7249321 32.0608,25.2608 C33.266813,26.3733396 33.3448266,28.2521062 32.2352,29.4608 C32.16,29.536 30.4192,31.4272 28.8848,32.8112 C26.7344,34.736 23.9008,35.7024 21.0592,35.7024 L21.0576,35.7008 Z M39,35.4912 C36.5664,38.1824 32.2,42.3744 32.016,42.5488 C31.4638872,43.0765527 30.730171,43.3721012 29.9664,43.3744006 C29.1545552,43.3749043 28.3777442,43.0437192 27.816,42.4576 C27.2712624,41.8862622 26.9758416,41.1219023 26.994746,40.3327201 C27.0136504,39.5435378 27.3453308,38.7941998 27.9168,38.2496 C27.9584,38.208 32.3168,34.0336 34.608,31.4992 C35.6795424,30.3222714 36.2320257,28.763438 36.1408,27.1744 C36.032,25.4912 35.224,23.9072 33.8576,22.7248 C32.0576,21.1664 28.4992,20.824 26.2736,22.816 C24.9488,24.008 23.3488,25.7584 23.3312,25.7744 C22.2224,26.9824 20.3472,27.0576 19.1392,25.9488 C17.9312,24.84 17.848,22.9568 18.9648,21.7488 C19.04,21.6656 20.7728,19.7744 22.3152,18.3904 C26.5408,14.5984 33.4576,14.5232 37.7312,18.224 C40.3232,20.4656 41.856,23.5152 42.056,26.816 C42.2568794,30.0029247 41.1531393,33.1345202 38.9984,35.4912 L39,35.4912 Z" id="Shape"></path>
        </g>
    </g>
</svg>