<?xml version="1.0" encoding="UTF-8"?>
<svg width="120px" height="120px" viewBox="0 0 120 120" version="1.1" xmlns="http://www.w3.org/2000/svg" xmlns:xlink="http://www.w3.org/1999/xlink">
    <!-- Generator: Sketch 61.2 (89653) - https://sketch.com -->
    <title>Overcast</title>
    <desc>Created with Sketch.</desc>
    <g id="Overcast" stroke="none" stroke-width="1" fill="none" fill-rule="evenodd">
        <rect fill="#000000" x="0" y="0" width="120" height="120"></rect>
        <g id="overcast" transform="translate(36.000000, 36.000000)" fill="#FFFFFF" fill-rule="nonzero">
            <path d="M24,48.0000906 C10.778,48.036 0.034,37.342 0,24.122 L0,24 C0,10.7 10.702,0 24,0 C37.298,0 48,10.7 48,24 C48,37.298 37.298,48.0000906 24,48.0000906 Z M24,38.498 L25.8,36.7 L24,29.8 L22.2,36.7 L24,38.498 Z M21.7,38.398 L20.8,41.8 L22.9,39.696 L21.7,38.398 L21.7,38.398 Z M26.3,38.398 L25.1,39.6 L27.2,41.702 L26.3,38.398 L26.3,38.398 Z M28,44.602 L24,40.6 L20,44.602 C21.3,44.802 22.6,45 24,45 C25.4,45 26.7,44.9 28,44.602 L28,44.602 Z M24,3 C12.402,3 2.99996378,12.402 2.99996378,24 C2.98343283,32.935917 8.65137134,40.8932172 17.102,43.798 L21.602,27.098 C20.580462,26.3544105 19.9832119,25.1614015 20,23.898 C20,21.696 21.8,19.896 24,19.896 C26.2,19.896 28,21.696 28,23.898 C28,25.196 27.398,26.298 26.398,27.098 L30.898,43.798 C39.3493976,40.8942468 45.0177916,32.9363072 45.0000418,24 C45.0000418,12.402 35.598,3 24,3 Z M37.7,34.4 C37.1894757,35.0380895 36.2708937,35.1694406 35.602,34.7 C35.2795047,34.4874897 35.0625724,34.1478854 35.0053367,33.7659326 C34.948101,33.3839798 35.0559606,32.9957053 35.302,32.698 C35.302,32.698 38.002,29.1 38.002,23.998 C38.002,18.896 35.302,15.298 35.302,15.298 C35.0561534,15.0000348 34.9486181,14.6115798 35.0062384,14.2296064 C35.0638588,13.847633 35.2811977,13.508185 35.604,13.296 C36.2728937,12.8265594 37.1914757,12.9579105 37.702,13.596 C37.902,13.798 41.002,17.896 41.002,23.996 C41.002,30.096 37.898,34.2 37.7,34.4 Z M30.398,30.5 C29.798,29.9 29.9,28.8 30.5,28.2 C30.5,28.2 32,26.602 32,24 C32,21.398 30.5,19.898 30.5,19.8 C29.9,19.198 29.9,18.198 30.398,17.5 C30.6449175,17.1786484 31.0206062,16.9820742 31.4253892,16.962432 C31.8301722,16.9427898 32.2231286,17.1020654 32.5,17.398 C32.602,17.5 35,20 35,24 C35,28 32.602,30.5 32.5,30.602 C31.898,31.2 31,31.102 30.398,30.5 L30.398,30.5 Z M17.602,30.5 C17,31.102 16.102,31.2 15.5,30.602 C15.398,30.398 13,28 13,24 C13,20 15.398,17.602 15.5,17.398 C16.102,16.8 17.102,16.8 17.602,17.5 C18.202,18.1 18.1,19.2 17.5,19.8 C17.5,19.898 16,21.398 16,24 C16,26.602 17.5,28.2 17.5,28.2 C18.1,28.8 18.202,29.798 17.602,30.5 L17.602,30.5 Z M12.398,34.702 C11.7282284,35.170648 10.8097593,35.0394381 10.298,34.402 C10.102,34.2 7,30.1 7,24 C7,17.9 10.102,13.8 10.298,13.6 C10.8087033,12.960712 11.7287242,12.8292805 12.398,13.3 C12.720172,13.5122049 12.9370633,13.8512498 12.994663,14.2327049 C13.0522627,14.6141599 12.9451506,15.0021294 12.7,15.3 C12.7,15.3 10,18.898 10,24 C10,29.102 12.7,32.7 12.7,32.7 C13.2,33.3 13,34.2 12.398,34.702 L12.398,34.702 Z" id="Shape"></path>
        </g>
    </g>
</svg>