<?xml version="1.0" encoding="UTF-8"?>
<svg width="120px" height="120px" viewBox="0 0 120 120" version="1.1" xmlns="http://www.w3.org/2000/svg" xmlns:xlink="http://www.w3.org/1999/xlink">
    <!-- Generator: Sketch 61.2 (89653) - https://sketch.com -->
    <title>Paypal</title>
    <desc>Created with Sketch.</desc>
    <g id="Paypal" stroke="none" stroke-width="1" fill="none" fill-rule="evenodd">
        <rect fill="#000000" x="0" y="0" width="120" height="120"></rect>
        <g id="paypal-fill" transform="translate(42.000000, 40.000000)" fill="#FFFFFF" fill-rule="nonzero">
            <path d="M34.134,12.956 C35.118,14.716 35.246,16.984 34.734,19.61 C33.254,27.222 28.182,29.85 21.706,29.85 L20.706,29.85 C19.9142763,29.8512156 19.2409377,30.4278784 19.118,31.21 L19.038,31.65 L17.778,39.636 L17.714,39.976 C17.590961,40.757764 16.917387,41.334 16.126,41.334 L9.44,41.334 C9.15765068,41.334 8.88947103,41.2103084 8.70600575,40.9956886 C8.52254048,40.7810689 8.44215692,40.4969246 8.486,40.218 L8.836,38 L11.872,38 L13.772,25.96 L16.542,25.96 C25.898,25.96 32.042,21.554 34.134,12.956 Z M28.214,2.776 C29.738,4.512 30.18,6.396 29.718,9.346 C29.68,9.592 29.638,9.826 29.594,10.066 C28.124,17.612 23.416,20.958 15.682,20.958 L11.914,20.958 C10.654,20.958 9.566,21.786 9.206,22.962 L9.178,22.958 L7.318,34.746 L0.242,34.746 C0.211868268,34.746 0.183330505,34.7324476 0.164040493,34.7092996 C0.14475048,34.6861516 0.136682364,34.655659 0.142,34.626 L5.338,1.606 C5.48274225,0.681856145 6.27858999,0.000549393051 7.214,0 L19.166,0 C23.532,0 26.598,0.938 28.212,2.776 L28.214,2.776 Z" id="Shape"></path>
        </g>
    </g>
</svg>