<?xml version="1.0" encoding="UTF-8"?>
<svg width="120px" height="120px" viewBox="0 0 120 120" version="1.1" xmlns="http://www.w3.org/2000/svg" xmlns:xlink="http://www.w3.org/1999/xlink">
    <!-- Generator: Sketch 61.2 (89653) - https://sketch.com -->
    <title>Phone</title>
    <desc>Created with Sketch.</desc>
    <g id="Phone" stroke="none" stroke-width="1" fill="none" fill-rule="evenodd">
        <rect fill="#000000" x="0" y="0" width="120" height="120"></rect>
        <g>
            <rect id="Rectangle" fill="#000000" fill-rule="nonzero" style="mix-blend-mode: multiply;" x="0" y="-4.26325641e-14" width="120" height="119.220779" rx="26"></rect>
            <path d="M79.998744,69.4934677 L79.998744,75.4759768 C80.0033412,76.5989837 79.5302339,77.6718735 78.6956512,78.4310669 C77.8610686,79.1902603 76.742358,79.5653969 75.6143555,79.4643162 C69.4255977,78.7975472 63.4808602,76.7006853 58.2578082,73.3422153 C53.3984338,70.2804944 49.2785325,66.1954538 46.1906838,61.3771971 C42.791733,56.1748151 40.6764967,50.2517134 40.0163385,44.0877458 C39.9147196,42.9727503 40.290407,41.8667441 41.0516289,41.0398988 C41.8128508,40.2130535 42.8895092,39.7415101 44.0186014,39.7402597 L50.0521636,39.7402597 C52.0711224,39.7207531 53.7919683,41.1881582 54.0745384,43.1704277 C54.329201,45.0849631 54.801481,46.964788 55.4823696,48.7740445 C56.0349132,50.2315334 55.6815075,51.8745921 54.5773353,52.9817426 L52.0231273,55.5143381 C54.8861641,60.5068334 59.0551518,64.6405451 64.0902517,67.4793563 L66.6444597,64.9467608 C67.7610583,63.8519316 69.4181384,63.5015162 70.8880651,64.0493844 C72.7127614,64.7245117 74.6086282,65.1927955 76.5395017,65.4453032 C78.5618767,65.7281968 80.0494059,67.4689719 79.998744,69.4934677 Z" id="Path" stroke="#FFFFFF" stroke-width="4" stroke-linecap="round" stroke-linejoin="round"></path>
        </g>
    </g>
</svg>