<?xml version="1.0" encoding="UTF-8"?>
<svg width="120px" height="120px" viewBox="0 0 120 120" version="1.1" xmlns="http://www.w3.org/2000/svg" xmlns:xlink="http://www.w3.org/1999/xlink">
    <!-- Generator: Sketch 61.2 (89653) - https://sketch.com -->
    <title>Podcast</title>
    <desc>Created with Sketch.</desc>
    <g id="Podcast" stroke="none" stroke-width="1" fill="none" fill-rule="evenodd">
        <rect fill="#000000" x="0" y="0" width="120" height="120"></rect>
        <g id="applepodcasts" transform="translate(40.000000, 38.000000)" fill="#FFFFFF" fill-rule="nonzero">
            <path d="M20.476,0.1632 C26.0824,0.1632 31.1512,2.328 35.0104,6.372 C37.948,9.4248 39.5992,12.6576 40.444,16.9128 C40.732,18.3288 40.732,22.1928 40.4608,23.7864 C39.5628146,28.8516012 36.7856545,33.391058 32.6848,36.4968 C31.2256,37.6008 27.6544,39.5232 27.0784,39.5232 C26.8672,39.5232 26.848,39.3048 26.944,38.4192 C27.1168,36.9984 27.2896,36.7032 28.096,36.3648 C29.3824,35.8272 31.5712,34.2672 32.9152,32.9208 C35.2583532,30.5789993 36.9236813,27.6464293 37.7344,24.4344 C38.2336,22.4568 38.176,18.06 37.6192,16.0248 C35.872,9.5544 30.592,4.524 24.1216,3.18 C22.24,2.796 18.8224,2.796 16.9216,3.18 C10.3744,4.524 4.96,9.804 3.3088,16.4472 C2.8672,18.252 2.8672,22.6488 3.3088,24.4536 C4.4032,28.8504 7.2448,32.8824 10.9696,35.2824 C11.6992,35.7624 12.5824,36.2616 12.9472,36.4152 C13.7536,36.7608 13.9264,37.0488 14.08,38.4696 C14.176,39.3336 14.152,39.5832 13.9456,39.5832 C13.8112,39.5832 12.832,39.1608 11.7952,38.6616 L11.6992,38.5896 C5.7664,35.6712 1.9648,30.732 0.5824,24.1608 C0.2368,22.4664 0.1792,18.42 0.5104,16.8648 C1.3744,12.6888 3.0256,9.4248 5.7712,6.5352 C9.7264,2.3664 14.8144,0.1608 20.4784,0.1608 L20.476,0.1632 Z M20.7976,6.9072 C21.7792,6.9168 22.7248,7.0032 23.452,7.1616 C30.1336,8.6496 34.876,15.3408 33.9544,21.9792 C33.5896,24.6528 32.668,26.8512 31.036,28.8912 C30.2296,29.9232 28.2712,31.6512 27.9256,31.6512 C27.8704,31.6512 27.8104,30.9984 27.8104,30.204 L27.8104,28.752 L28.8088,27.5616 C32.572,23.0544 32.3032,16.7568 28.1944,12.624 C26.6008,11.016 24.7576,10.0704 22.3768,9.6336 C20.8408,9.3504 20.5144,9.3504 18.9016,9.6144 C16.4536,10.0152 14.5576,10.9632 12.8728,12.6288 C8.7448,16.7184 8.476,23.0496 12.2392,27.5616 L13.2304,28.752 L13.2304,30.2112 C13.2304,31.0176 13.1656,31.6704 13.0864,31.6704 C13.0144,31.6704 12.4528,31.2864 11.8576,30.8064 L11.776,30.78 C9.7792,29.1864 8.0128,26.3592 7.2832,23.5872 C6.8416,21.912 6.8416,18.7296 7.3024,17.0592 C8.512,12.552 11.8336,9.0552 16.4416,7.4136 C17.4256,7.0656 19.1608,6.8856 20.7952,6.9072 L20.7976,6.9072 Z M20.4856,14.0832 C21.2296,14.0832 21.9736,14.2272 22.5112,14.5104 C23.7048948,15.1541838 24.6003697,16.238225 25.0072,17.532 C26.1208,21.3192 22.108,24.636 18.4792,22.9416 L18.4432,22.9416 C16.7344,22.1472 15.8128,20.6472 15.7936,18.6936 C15.7936,16.9344 16.7728,15.4032 18.4624,14.5056 C19,14.2248 19.744,14.0832 20.488,14.0832 L20.4856,14.0832 Z M20.4592,25.4303193 C22.8304,25.4208 24.5536,26.268 25.1872,27.7584 C25.6624,28.872 25.4848,32.3952 24.664,38.0832 C24.1072,42.0576 23.8,43.0608 23.032,43.7376 C21.976,44.6736 20.4784,44.9328 19.0576,44.4288 L19.0504,44.4288 C17.332,43.812 16.9624,42.9768 16.2568,38.0832 C15.4384,32.3952 15.2584,28.872 15.7336,27.7584 C16.3624,26.28 18.0712,25.44 20.4616,25.4303193 L20.4592,25.4303193 Z" id="Shape"></path>
        </g>
    </g>
</svg>