<?xml version="1.0" encoding="UTF-8"?>
<svg width="120px" height="120px" viewBox="0 0 120 120" version="1.1" xmlns="http://www.w3.org/2000/svg" xmlns:xlink="http://www.w3.org/1999/xlink">
    <!-- Generator: Sketch 61.2 (89653) - https://sketch.com -->
    <title>Reddit</title>
    <desc>Created with Sketch.</desc>
    <g id="Reddit" stroke="none" stroke-width="1" fill="none" fill-rule="evenodd">
        <rect fill="#000000" x="0" y="0" width="120" height="120"></rect>
        <g id="Maps" fill="#000000" fill-rule="nonzero">
            <rect id="Rectangle" style="mix-blend-mode: multiply;" x="0" y="-4.26325641e-14" width="120" height="119.220779" rx="26"></rect>
        </g>
        <g id="logo-reddit" transform="translate(38.000000, 41.000000)" fill="#FFFFFF" fill-rule="nonzero">
            <path d="M27.72,18.72 C25.9305974,18.72 24.48,20.1705974 24.48,21.96 C24.48,23.7494026 25.9305974,25.2 27.72,25.2 C29.5094026,25.2 30.96,23.7494026 30.96,21.96 C30.96,20.1705974 29.5094026,18.72 27.72,18.72 Z" id="Path"></path>
            <circle id="Oval" transform="translate(15.480262, 21.959850) rotate(-22.500000) translate(-15.480262, -21.959850) " cx="15.4802623" cy="21.9598504" r="3.24"></circle>
            <path d="M43.2000338,18.5193 C43.2000338,15.7122 40.9374,13.4289 38.16,13.4289 C36.9893555,13.4288017 35.8555634,13.8382531 34.9551,14.5863 C31.8051,12.447 27.6849,11.1375 23.2866,10.872 L25.2666,3.762 L31.2435,4.95 C31.4145,7.3332 33.4035,9.2241 35.802,9.2241 C38.322,9.2241 40.3722,7.1541 40.3722,4.6152 C40.3722,2.0763 38.25,0 35.73,0 C33.9723,0 32.4621,1.0071 31.6935,2.5893 L23.5935,0.9792 L20.7945,10.836 L20.3778,10.8477 C15.8211,11.0466 11.5272,12.3714 8.2485,14.5854 C7.34827428,13.8345929 6.21222148,13.4251041 5.04,13.4289 C2.2599,13.4289 -5.03168692e-05,15.7122 -5.03168692e-05,18.5193 C-0.00807748475,20.3379062 0.95687344,22.0220219 2.5299,22.9347 C2.47608073,23.3326282 2.44931929,23.7337491 2.4498,24.1353 C2.4597,27.7119 4.4739,31.0653 8.1198,33.5853 C11.7324,36.0693 16.5159,37.44 21.6,37.44 C26.6841,37.44 31.4784,36.0693 35.0847,33.5799 C38.7324,31.0599 40.7412,27.7056 40.7412,24.1245 C40.7403658,23.7243339 40.7151189,23.3245913 40.6656,22.9275 C42.2396275,22.0187509 43.2066232,20.3368103 43.2000338,18.5193 L43.2000338,18.5193 Z M35.82,2.43 C37.0129351,2.43 37.98,3.39706494 37.98,4.59 C37.98,5.78293506 37.0129351,6.75 35.82,6.75 C34.6270649,6.75 33.66,5.78293506 33.66,4.59 C33.66,3.39706494 34.6270649,2.43 35.82,2.43 Z M2.40478102,18.5193 C2.39931433,17.050457 3.58377382,15.854322 5.0526,15.8454 C5.4803221,15.8463044 5.90126721,15.9523133 6.2784,16.1541 C4.8834,17.451 3.8547,18.891 3.2121,20.4453 C2.69751137,19.9362503 2.40698341,19.2431289 2.40478102,18.5193 Z M33.7338,31.59 C30.5172,33.8031 26.2098,35.0226 21.6045,35.0226 C16.9992,35.0226 12.69,33.8049 9.4761,31.59 C6.5061,29.5389 4.8645,26.8866 4.8645,24.12 C4.86615354,23.28165 5.01700592,22.4502858 5.31,21.6648 C5.8212,20.2482 6.7644,18.9216 8.1135,17.7237 C8.53500128,17.3513673 8.97860917,17.0048362 9.4419,16.686 L9.4689,16.6671 L9.4689,16.6671 L9.4905,16.6518 C12.7053,14.445 17.0073,13.2318 21.6054,13.2318 C26.2035,13.2318 30.5064,14.4477 33.7212,16.6518 L33.7419,16.6671 L33.7725,16.6896 C34.2351804,17.0072568 34.67847,17.3522714 35.1,17.7228 C36.45,18.9216 37.3932,20.2473 37.9044,21.6657 C38.089915,22.1804885 38.2199515,22.7136084 38.2923,23.256 C38.3284077,23.5440893 38.3463008,23.8341567 38.3463008,24.1245 C38.3454,26.8893 36.7074,29.5416 33.7338,31.59 Z M39.9978,20.4372 C39.3561,18.882 38.3274,17.4411 36.9315,16.1424 C37.3101207,15.9426845 37.7319362,15.838853 38.16,15.8399906 C39.6286818,15.8489222 40.8128833,17.0452033 40.8069226,18.5139 C40.8056022,19.2380015 40.5141811,19.9313828 39.9978,20.439 L39.9978,20.4372 Z" id="Shape"></path>
            <path d="M27.6507,28.2798 C27.6282,28.3023 25.3503,30.6261 21.6072,30.6441 C17.8272,30.6261 15.642,28.3734 15.5493,28.2798 L15.5493,28.2798 C15.4040501,28.135775 15.1698499,28.135775 15.0246,28.2798 L13.7916,29.4921 C13.7209749,29.5622203 13.6812554,29.6576273 13.6812554,29.75715 C13.6812554,29.8566727 13.7209749,29.9520797 13.7916,30.0222 L13.7916,30.0222 C14.0976,30.3282 16.9146,33.1029 21.6018,33.1227 C26.2764,33.1029 29.106,30.3282 29.412,30.0222 L29.412,30.0222 C29.4826792,29.9519256 29.5224206,29.8563697 29.5224206,29.7567 C29.5224206,29.6570303 29.4826792,29.5614744 29.412,29.4912 L28.1781,28.2789 C28.0332638,28.1355746 27.8000362,28.1355746 27.6552,28.2789 L27.6507,28.2798 Z" id="Path"></path>
        </g>
    </g>
</svg>