<?xml version="1.0" encoding="UTF-8"?>
<svg width="120px" height="119px" viewBox="0 0 120 119" version="1.1" xmlns="http://www.w3.org/2000/svg" xmlns:xlink="http://www.w3.org/1999/xlink">
    <!-- Generator: Sketch 61.2 (89653) - https://sketch.com -->
    <title>Safari</title>
    <desc>Created with Sketch.</desc>
    <g id="Safari" stroke="none" stroke-width="1" fill="none" fill-rule="evenodd">
        <rect fill="#000000" x="0" y="0" width="120" height="119"></rect>
        <g transform="translate(0.000000, -0.000000)">
            <rect id="Rectangle" fill="#000000" fill-rule="nonzero" style="mix-blend-mode: multiply;" x="0" y="0" width="120" height="119.220779" rx="26"></rect>
            <g id="Group-2" transform="translate(26.000000, 26.824675)">
                <g id="safari-2365241" stroke="#FFFFFF" stroke-linecap="square" stroke-width="0.7021">
                    <g id="Group" transform="translate(0.400000, 0.000000)">
                        <line x1="33.67168" y1="66.4018609" x2="33.67168" y2="60.8382245" id="Path"></line>
                        <line x1="33.67168" y1="5.89731545" x2="33.67168" y2="0.333679091" id="Path"></line>
                        <path d="M27.882449,65.9194658 L28.854875,60.440355 M38.457622,6.33413045 L39.430048,0.855019636" id="Shape"></path>
                        <path d="M22.296589,64.417597 L24.211901,59.1894896 M43.1256,7.56192068 L45.040912,2.33381332" id="Shape"></path>
                        <path d="M17.0184,62.0106149 L19.8184,57.1923597 M47.4684,9.61214155 L50.2684,4.79389336" id="Shape"></path>
                        <path d="M12.328127,58.692636 L15.927737,54.4306471 M51.473891,12.3434697 L55.073501,8.08147391" id="Shape"></path>
                        <path d="M8.163631,54.6062911 L12.453476,51.0300552 M54.815726,15.7147274 L59.105578,12.1384915" id="Shape"></path>
                        <path d="M4.861927,49.8788902 L9.71166,47.097072 M57.60286,19.6266244 L62.4526,16.8448062" id="Shape"></path>
                        <path d="M2.3702,44.6842759 L7.632478,42.781401 M59.597468,23.9905043 L64.859746,22.0876364" id="Shape"></path>
                        <path d="M0.903938,39.153319 L6.41886,38.1872005 M60.878727,28.6468159 L66.393656,27.6806974" id="Shape"></path>
                        <path d="M0.432768,33.5357461 L6.032768,33.5357461 M61.332754,33.5357461 L66.932754,33.5357461" id="Shape"></path>
                        <path d="M0.919576,27.6683044 L6.434498,28.6344229 M60.8944,38.1748144 L66.409322,39.140926" id="Shape"></path>
                        <path d="M2.429,22.0959123 L7.691278,23.9987872 M59.656275,42.7896839 L64.918553,44.6925588" id="Shape"></path>
                        <path d="M4.849754,16.9043163 L9.699494,19.6861345 M57.590694,47.156589 L62.440441,49.9384072" id="Shape"></path>
                        <path d="M8.174551,12.1275659 L12.464396,15.7038018 M54.826653,51.0191366 L59.116505,54.5953795" id="Shape"></path>
                        <path d="M12.256944,8.08535455 L15.856554,12.3473504 M51.402715,54.4345139 L55.002325,58.6965097" id="Shape"></path>
                        <path d="M17.024133,4.77088077 L19.824133,9.58912895 M47.474133,57.1693541 L50.274133,61.9876023" id="Shape"></path>
                        <path d="M22.297513,2.33603182 L24.212825,7.56413918 M43.126538,59.1916803 L45.04185,64.4197876" id="Shape"></path>
                        <path d="M27.8614,0.898360364 L28.833833,6.37747118 M38.436545,60.4836818 L39.408978,65.9627926" id="Shape"></path>
                    </g>
                </g>
                <g id="Group" transform="translate(18.600000, 20.168182)" fill="#FFFFFF">
                    <polygon id="Path" points="31.1094 0.0250363636 13.8474 10.9993091 0.0294 25.8959455 17.3754 15.1720364"></polygon>
                    <polygon id="Path" points="31.1094 0.0250363636 13.8474 10.9993091 17.3754 15.1720364"></polygon>
                </g>
                <g id="Group" transform="translate(0.400000, 0.000000)" stroke="#FFFFFF" stroke-linecap="square" stroke-width="0.7021">
                    <path d="M30.755753,66.2821871 L30.999794,63.5109537 M36.3076,3.23664545 L36.551641,0.465419045" id="Shape"></path>
                    <path d="M25.07421,65.3230788 L25.798906,62.636051 M41.560981,4.19315277 L42.285677,1.50611809" id="Shape"></path>
                    <path d="M19.598866,63.2986662 L20.782202,60.7774835 M46.519648,5.94174109 L47.702984,3.42055841" id="Shape"></path>
                    <path d="M14.588,60.4538607 L16.194017,58.1751274 M51.124794,8.61270382 L52.730811,6.3339705" id="Shape"></path>
                    <path d="M10.178378,56.7430683 L12.1583,54.7760307 M55.221068,11.9928633 L57.200969,10.0258188" id="Shape"></path>
                    <path d="M6.433931,52.3637701 L8.727558,50.7681818 M58.613919,16.0642002 L60.907546,14.4686119" id="Shape"></path>
                    <path d="M3.542889,47.3528532 L6.08055,46.1772082 M61.274696,20.6068815 L63.812357,19.4312365" id="Shape"></path>
                    <path d="M1.542702,41.9545195 L4.247292,41.2345293 M63.072177,25.5747985 L65.776767,24.8548152" id="Shape"></path>
                    <path d="M0.515767,36.2695471 L3.305113,36.0270908 M63.973371,30.753772 L66.762717,30.5113226" id="Shape"></path>
                    <path d="M0.539889,30.5112878 L3.329235,30.7537441 M63.9975,36.027063 L66.786846,36.2695124" id="Shape"></path>
                    <path d="M1.501934,24.8647672 L4.206524,25.5847574 M63.031395,41.2444812 L65.735985,41.9644714" id="Shape"></path>
                    <path d="M3.5196,19.417696 L6.057261,20.593341 M61.2514,46.1636677 L63.789061,47.3393127" id="Shape"></path>
                    <path d="M6.422605,14.465531 L8.716232,16.0611194 M58.6026,50.765101 L60.896227,52.3606823" id="Shape"></path>
                    <path d="M10.175053,10.0447073 L12.154954,12.0117518 M55.217757,54.7949262 L57.197651,56.7619707" id="Shape"></path>
                    <path d="M14.55258,6.31731436 L16.158597,8.59604768 M51.089402,58.1584713 L52.695419,60.4372046" id="Shape"></path>
                    <path d="M19.615932,3.46962273 L20.799261,5.99080541 M46.5367,60.8265409 L47.720029,63.3477236" id="Shape"></path>
                    <path d="M25.041604,1.51089586 L25.7663,4.19792359 M41.528375,62.6408288 L42.253071,65.3278635" id="Shape"></path>
                    <path d="M30.7265,0.494391682 L30.970534,3.26562505 M36.278347,63.5399403 L36.522381,66.3111667" id="Shape"></path>
                </g>
            </g>
        </g>
    </g>
</svg>