<?xml version="1.0" encoding="UTF-8"?>
<svg width="120px" height="120px" viewBox="0 0 120 120" version="1.1" xmlns="http://www.w3.org/2000/svg" xmlns:xlink="http://www.w3.org/1999/xlink">
    <!-- Generator: Sketch 61.2 (89653) - https://sketch.com -->
    <title>Slack</title>
    <desc>Created with Sketch.</desc>
    <g id="Slack" stroke="none" stroke-width="1" fill="none" fill-rule="evenodd">
        <rect fill="#000000" x="0" y="0" width="120" height="120"></rect>
        <g id="slack-fill" transform="translate(36.000000, 36.000000)">
            <polygon id="Path" points="0 0 48 0 48 48 0 48"></polygon>
            <path d="M13.054,29.028 C13.0463139,31.197172 11.2891756,32.953417 9.12,32.96 C6.9500469,32.953411 5.19258897,31.1959531 5.186,29.026 C5.186,26.86 6.954,25.09 9.12,25.09 L13.056,25.09 L13.056,29.026 L13.054,29.028 Z M15.038,29.028 C15.038,26.862 16.806,25.092 18.972,25.092 C21.138,25.092 22.908,26.862 22.908,29.028 L22.908,38.882 C22.9014056,41.052731 21.1427341,42.8105089 18.972,42.816 C16.8020469,42.809411 15.044589,41.0519531 15.038,38.882 L15.038,29.028 L15.038,29.028 Z M18.972,13.054 C16.802828,13.0463139 15.046583,11.2891756 15.04,9.12 C15.04,6.954 16.808,5.186 18.974,5.186 C21.14,5.186 22.91,6.954 22.91,9.12 L22.91,13.056 L18.972,13.056 L18.972,13.054 Z M18.972,15.038 C21.138,15.038 22.908,16.806 22.908,18.972 C22.9025039,21.1435121 21.1435121,22.9025039 18.972,22.908 L9.12,22.908 C6.94926896,22.9014056 5.1914911,21.1427341 5.186,18.972 C5.186,16.806 6.954,15.038 9.12,15.038 L18.974,15.038 L18.972,15.038 Z M34.946,18.972 C34.946,16.806 36.716,15.038 38.882,15.038 C41.048,15.038 42.816,16.806 42.816,18.972 C42.8105089,21.1427341 41.052731,22.9014056 38.882,22.908 L34.946,22.908 L34.946,18.972 L34.946,18.972 Z M32.962,18.972 C32.9565089,21.1427341 31.198731,22.9014056 29.028,22.908 C26.8564879,22.9025039 25.0974961,21.1435121 25.092,18.972 L25.092,9.12 C25.092,6.954 26.862,5.186 29.028,5.186 C31.194,5.186 32.962,6.954 32.962,9.12 L32.962,18.974 L32.962,18.972 Z M29.028,34.946 C31.194,34.946 32.962,36.716 32.962,38.882 C32.955411,41.0519531 31.1979531,42.809411 29.028,42.816 C26.8572659,42.8105089 25.0985944,41.052731 25.092,38.882 L25.092,34.946 L29.028,34.946 L29.028,34.946 Z M29.028,32.962 C26.8572659,32.9565089 25.0985944,31.198731 25.092,29.028 C25.092,26.862 26.862,25.092 29.028,25.092 L38.882,25.092 C41.048,25.092 42.816,26.862 42.816,29.028 C42.809411,31.1979531 41.0519531,32.955411 38.882,32.962 L29.028,32.962 Z" id="Shape" fill="#FFFFFF" fill-rule="nonzero"></path>
        </g>
    </g>
</svg>