<?xml version="1.0" encoding="UTF-8"?>
<svg width="120px" height="120px" viewBox="0 0 120 120" version="1.1" xmlns="http://www.w3.org/2000/svg" xmlns:xlink="http://www.w3.org/1999/xlink">
    <!-- Generator: Sketch 61.2 (89653) - https://sketch.com -->
    <title>Snapchat</title>
    <desc>Created with Sketch.</desc>
    <g id="Snapchat" stroke="none" stroke-width="1" fill="none" fill-rule="evenodd">
        <rect fill="#000000" x="0" y="0" width="120" height="120"></rect>
        <g id="Spotify" fill-rule="nonzero">
            <rect id="Rectangle" fill="#000000" style="mix-blend-mode: multiply;" x="0" y="-4.26325641e-14" width="120" height="119.220779" rx="26"></rect>
            <path d="M82.5607182,72.1116217 L82.5607182,71.9110463 C82.0874024,71.7069685 81.5904079,71.5720313 81.0832185,71.5098955 C78.6625938,70.5998429 76.5370942,68.9691022 74.9583106,66.8107007 C74.0429511,65.6622952 73.3573273,64.3264379 72.9435383,62.8851538 C72.7564395,62.3787909 72.7564395,61.8155673 72.9435383,61.3092043 C73.4833097,60.5640022 74.2729006,60.0710051 75.146356,59.9338302 C76.1119482,59.557782 77.0178917,59.026312 77.8327191,58.3578807 C78.0207645,58.1573053 78.0207645,57.9567299 78.20881,57.7561546 L78.20881,57.5555792 C78.3848309,57.331869 78.3848309,57.0056414 78.20881,56.7819312 C78.0572062,56.3272045 77.7217664,55.9694135 77.2954465,55.8077079 C76.8068137,55.4474891 76.1815323,55.3721888 75.6299014,55.6071325 C75.1565856,55.8112103 74.6595911,55.9461476 74.1524017,56.0082833 L73.9643563,56.0082833 C73.423195,56.1964935 72.8399724,56.1964935 72.2988111,56.0082833 L72.2988111,55.6071325 C72.275013,54.495548 72.3379115,53.3837775 72.4868566,52.2833118 C72.5123378,50.4567968 72.4495728,48.6300944 72.2988111,46.810469 C71.6460615,43.7712675 69.9373233,41.1090486 67.5170848,39.360526 C65.8042912,38.1535772 63.839025,37.4154726 61.7951314,37.211504 C61.1364868,37.0390459 60.4575482,36.971456 59.7803591,37.0109286 C56.9159202,36.9606728 54.1241021,37.9735451 51.8824516,39.8762913 C50.2861406,41.295697 48.9943966,43.0643832 48.0946796,45.0625978 L48.0946796,45.2631732 C47.4437147,47.3470783 47.2506966,49.5627332 47.5305434,51.7388929 C47.6222306,53.1699053 47.6222306,54.6059245 47.5305434,56.0369369 C46.8714514,56.2323849 46.174863,56.2323849 45.515771,56.0369369 L45.4083165,56.0369369 C44.9011271,55.9748012 44.4041326,55.839864 43.9308168,55.6357862 C43.4070344,55.4532787 42.8315465,55.6095274 42.4533171,56.0369369 L42.3189989,56.0369369 C42.1309535,56.2375123 41.5936809,56.6386631 41.5936809,57.2117356 L41.5936809,57.412311 C41.6675915,57.7980795 41.8675116,58.1433274 42.1578172,58.3865344 C42.3458626,58.5871097 42.533908,58.5871097 42.7219534,58.7876851 C43.6739235,59.4438461 44.7298282,59.9098857 45.8381346,60.1630592 C46.4022709,60.56421 47.1275889,60.9367072 47.1275889,61.5384333 C47.2990924,62.4355979 47.0928651,63.3678463 46.5634526,64.0886061 C45.4967647,66.4117232 43.9210873,68.4265604 41.9697717,69.9625997 C40.8823727,70.7129244 39.7085412,71.3100545 38.4774997,71.7391246 L38.2894543,71.7391246 C37.8356825,71.8176744 37.4349483,72.0991568 37.1880454,72.5127725 L37,72.5127725 C37,72.9139233 37,73.4869958 37.1880454,73.6875712 C37.3760908,73.8881466 37.5641363,74.088722 37.7521817,74.088722 C38.792386,74.6541824 39.9061632,75.0501795 41.0564083,75.2635207 C41.7817263,75.4640961 42.533908,75.6646715 43.0711806,75.8652469 C43.0934565,76.0777041 43.1575357,76.2827511 43.259226,76.466973 C43.4472714,77.0686992 43.6353169,77.8423471 43.8233623,78.6159951 C43.8233623,78.8165704 44.0114077,78.8165704 44.1994531,79.0171458 C44.4535356,79.0219824 44.7010027,78.9306129 44.8979075,78.7592632 L45.0859529,78.7592632 C46.7209361,78.4014001 48.4000629,78.3336321 50.0557247,78.5586878 C51.7274284,79.3579503 53.327868,80.3169846 54.837451,81.4240505 C55.9512091,82.3481418 57.2980885,82.896853 58.7058139,83 L62.0100405,83 C62.8456036,82.7954729 63.650319,82.4675694 64.4009036,82.0257767 L64.588949,82.0257767 C66.0762447,80.7973909 67.6578259,79.7046969 69.3169481,78.7592632 L69.5855844,78.7592632 C70.1782306,78.5757774 70.7970486,78.507831 71.4123113,78.5586878 C72.8202983,78.4260073 74.2385715,78.4934559 75.6299014,78.7592632 L75.8179468,78.7592632 C76.0199925,78.7453167 76.1809624,78.573621 76.1940376,78.3581124 C76.2978923,78.3581124 76.3820831,78.2683118 76.3820831,78.157537 C76.3820831,77.9569616 76.5701285,77.9569616 76.3820831,77.9569616 L76.5701285,77.9569616 C76.6357324,77.1862733 76.8854522,76.4463863 77.2954465,75.8079396 C77.5439394,75.5600402 77.8687135,75.4173989 78.20881,75.4067888 C79.337626,75.1989815 80.4444171,74.8726535 81.5130366,74.4325655 C82.0588497,74.2103747 82.5602072,73.8797932 82.9905363,73.4583422 C83.0173999,73.0285378 83.0173999,72.2835435 82.5607182,72.1116217 L82.5607182,72.1116217 Z" id="Path" stroke="#FFFFFF" stroke-width="2.7"></path>
        </g>
    </g>
</svg>