<?xml version="1.0" encoding="UTF-8"?>
<svg width="120px" height="120px" viewBox="0 0 120 120" version="1.1" xmlns="http://www.w3.org/2000/svg" xmlns:xlink="http://www.w3.org/1999/xlink">
    <!-- Generator: Sketch 61.2 (89653) - https://sketch.com -->
    <title>Spotify</title>
    <desc>Created with Sketch.</desc>
    <g id="Spotify" stroke="none" stroke-width="1" fill="none" fill-rule="evenodd">
        <rect fill="#000000" x="0" y="0" width="120" height="120"></rect>
        <g fill-rule="nonzero">
            <g id="Spark" transform="translate(0.000000, -0.000000)" fill="#000000">
                <rect id="Rectangle" style="mix-blend-mode: multiply;" x="0" y="0" width="120" height="119.220779" rx="26"></rect>
            </g>
            <g id="spotify" transform="translate(41.000000, 48.681818)" fill="#FFFFFF">
                <g id="spotify-2" transform="translate(0.030006, 0.853689)">
                    <path d="M35.7449,8.37784286 C25.4341,3.66812532 13.647,2.28446883 2.5544,4.48170779 C1.7419,4.64275519 0.9521,4.11868052 0.79,3.31165519 C0.6281,2.50443117 1.1553,1.71966039 1.9678,1.55871234 C13.6758,-0.760529221 26.1165,0.699428571 36.998,5.66984221 C37.7507,6.01359545 38.0803,6.89861104 37.7343,7.64642338 C37.3873,8.39632208 36.4953,8.72070195 35.7449,8.37784286 Z" id="Path"></path>
                    <path d="M29.4781,21.9182435 C22.0145,18.5080325 13.4772,17.5093597 5.4395,19.1062227 C4.6267,19.2675682 3.8369,18.7440896 3.6745,17.9370643 C3.5121,17.1299396 4.039,16.3448708 4.8513,16.1835253 C13.5057,14.4642623 22.6968,15.539137 30.7317,19.2103422 C31.4843,19.5541948 31.8138,20.4392104 31.4677,21.1870227 C31.1205,21.9370208 30.2285,22.2610032 29.4781,21.9182435 Z" id="Path"></path>
                    <path d="M32.6108,15.1484903 C23.7264,11.0879299 13.5552,9.89830519 3.9712,11.7990818 C3.1578,11.9601292 2.3687,11.4364519 2.2066,10.6293273 C2.0445,9.8222026 2.5715,9.03733247 3.3839,8.87618571 C13.5845,6.85340649 24.4093,8.11923312 33.8645,12.4407877 C34.6171,12.7847396 34.9466,13.6697552 34.6003,14.4174682 C34.2533,15.1672675 33.3611,15.4916474 32.6108,15.1484903 Z" id="Path"></path>
                </g>
            </g>
        </g>
    </g>
</svg>