<?xml version="1.0" encoding="UTF-8"?>
<svg width="120px" height="120px" viewBox="0 0 120 120" version="1.1" xmlns="http://www.w3.org/2000/svg" xmlns:xlink="http://www.w3.org/1999/xlink">
    <!-- Generator: Sketch 61.2 (89653) - https://sketch.com -->
    <title>Starbucks</title>
    <desc>Created with Sketch.</desc>
    <g id="Starbucks" stroke="none" stroke-width="1" fill="none" fill-rule="evenodd">
        <rect fill="#000000" x="0" y="0" width="120" height="120"></rect>
        <g id="Maps" fill="#000000" fill-rule="nonzero">
            <rect id="Rectangle" style="mix-blend-mode: multiply;" x="0" y="-4.26325641e-14" width="120" height="119.220779" rx="26"></rect>
        </g>
        <g id="coffee" transform="translate(39.000000, 40.000000)" stroke="#FFFFFF" stroke-linecap="round" stroke-linejoin="round" stroke-width="4">
            <path d="M32,14 L34,14 C38.418278,14 42,17.581722 42,22 C42,26.418278 38.418278,30 34,30 L32,30" id="Path"></path>
            <path d="M0,14 L32,14 L32,32 C32,36.418278 28.418278,40 24,40 L8,40 C3.581722,40 0,36.418278 0,32 L0,14 Z" id="Path"></path>
            <line x1="8" y1="0" x2="8" y2="6" id="Path"></line>
            <line x1="16" y1="0" x2="16" y2="6" id="Path"></line>
            <line x1="24" y1="0" x2="24" y2="6" id="Path"></line>
        </g>
    </g>
</svg>