<?xml version="1.0" encoding="UTF-8"?>
<svg width="120px" height="120px" viewBox="0 0 120 120" version="1.1" xmlns="http://www.w3.org/2000/svg" xmlns:xlink="http://www.w3.org/1999/xlink">
    <!-- Generator: Sketch 61.2 (89653) - https://sketch.com -->
    <title>TikTok</title>
    <desc>Created with Sketch.</desc>
    <g id="TikTok" stroke="none" stroke-width="1" fill="none" fill-rule="evenodd">
        <rect fill="#000000" x="0" y="0" width="120" height="120"></rect>
        <g id="tik-tok" transform="translate(44.000000, 42.000000)" fill="#FFFFFF" fill-rule="nonzero">
            <path d="M11.6852344,36 C9.0646875,36 6.59320312,35.1639844 4.53796875,33.5819531 C4.1540625,33.2866406 3.78492187,32.9639062 3.44039062,32.6235937 C1.04132812,30.2526563 -0.1659375,27.0949219 0.041484375,23.731875 C0.19828125,21.1900781 1.22203125,18.7396875 2.92570312,16.8321094 C5.18203125,14.3057813 8.29265625,12.9142969 11.6859375,12.9142969 C12.2688281,12.9142969 12.8573437,12.9578906 13.4367187,13.0436719 L14.3367187,13.1772656 L14.3367187,21.1640625 L12.9508594,20.7063281 C12.5472656,20.5727344 12.1275,20.5052344 11.7028125,20.5052344 C10.6298437,20.5052344 9.62507812,20.9257031 8.8734375,21.6885938 C8.1253125,22.4479688 7.72242187,23.4520312 7.73789062,24.5172656 C7.75828125,25.8904688 8.48179687,27.135 9.67289062,27.8479688 C10.2213281,28.175625 10.8457031,28.3675781 11.4799219,28.4027344 C11.9805469,28.4301563 12.4748437,28.3647656 12.9501562,28.2079688 C14.5750781,27.6714844 15.6670312,26.1639844 15.6670312,24.4575 L15.6740625,16.1746875 L15.6740625,0 L23.3071875,0 L23.3163281,1.04484375 C23.3205469,1.51804688 23.3690625,1.99125 23.4604688,2.4496875 C23.8190625,4.2525 24.8301563,5.85914063 26.3074219,6.97289062 C27.61875,7.9621875 29.1839062,8.48460937 30.8320312,8.48460937 C30.8707031,8.48460937 30.8707031,8.48460937 31.2229687,8.50921875 L32.2038281,8.578125 L32.2038281,15.046875 L32.2038281,16.1015625 L31.8522656,16.1008594 L31.15125,16.1008594 C31.145625,16.1008594 31.14,16.1008594 31.1336719,16.1008594 L30.796875,16.1008594 C30.7954687,16.1008594 30.7933594,16.1008594 30.79125,16.1008594 C28.7585156,16.1008594 26.85375,15.7134375 24.9658594,14.9167969 C24.4033594,14.6791406 23.855625,14.4077344 23.326875,14.1046875 L23.3507812,24.4975781 C23.338125,27.5716406 22.123125,30.4551562 19.9300781,32.6228906 C18.1504687,34.3814062 15.9046875,35.505 13.4353125,35.870625 C12.8594531,35.9564063 12.2709375,36 11.6852344,36 Z M11.6852344,15.0236719 C8.9015625,15.0236719 6.34921875,16.1648437 4.49859375,18.2369531 C3.10921875,19.7929688 2.27390625,21.7905469 2.1459375,23.86125 C1.9771875,26.6069531 2.96296875,29.1860156 4.92257812,31.1224219 C5.2059375,31.4022656 5.50898437,31.6673437 5.82398438,31.9099219 C7.50726563,33.2057813 9.534375,33.890625 11.6852344,33.890625 C12.1675781,33.890625 12.6520313,33.8547656 13.1266406,33.7844531 C15.1495313,33.4849219 16.9896094,32.5645312 18.4478906,31.123125 C20.2394531,29.3526562 21.2315625,26.9992969 21.2421094,24.4961719 L21.2090625,9.984375 L22.9127344,11.2985156 C23.7923438,11.9770312 24.7598437,12.5409375 25.7871094,12.9747656 C27.19125,13.5675 28.6066406,13.8965625 30.09375,13.9746094 L30.09375,10.5679687 C28.2557812,10.4301562 26.5197656,9.77695312 25.036875,8.65828125 C23.1454687,7.23234375 21.8510156,5.17359375 21.3911719,2.86242187 C21.3419531,2.61421875 21.301875,2.36320312 21.2723437,2.11007812 L17.7827344,2.11007812 L17.7827344,16.1753906 L17.7757031,24.4582031 C17.7757031,27.0759375 16.1022656,29.3878125 13.6110937,30.2104687 C12.8847656,30.4502344 12.1289062,30.5500781 11.3639062,30.5085937 C10.389375,30.4551562 9.4303125,30.1605469 8.589375,29.6578125 C6.76617187,28.5672656 5.65875,26.656875 5.6278125,24.5482031 C5.60390625,22.9141406 6.22195312,21.3728906 7.36945312,20.2078125 C8.52046875,19.0392187 10.0589062,18.3958594 11.7014062,18.3958594 C11.8771875,18.3958594 12.0515625,18.4035937 12.2259375,18.4183594 L12.2259375,15.0384375 C12.0459375,15.0285937 11.8652344,15.0236719 11.6852344,15.0236719 Z" id="Shape"></path>
        </g>
    </g>
</svg>