<?xml version="1.0" encoding="UTF-8"?>
<svg width="120px" height="120px" viewBox="0 0 120 120" version="1.1" xmlns="http://www.w3.org/2000/svg" xmlns:xlink="http://www.w3.org/1999/xlink">
    <!-- Generator: Sketch 61.2 (89653) - https://sketch.com -->
    <title>Tinder</title>
    <desc>Created with Sketch.</desc>
    <g id="Tinder" stroke="none" stroke-width="1" fill="none" fill-rule="evenodd">
        <rect fill="#000000" x="0" y="0" width="120" height="120"></rect>
        <g id="tinder" transform="translate(39.000000, 33.000000)" fill="#FFFFFF" fill-rule="nonzero">
            <path d="M21.9270937,0 C23.7900937,1.42425 29.9528437,7.4835 34.1760937,14.14575 C37.1078437,18.77175 39.3623437,23.88825 40.3635937,29.2905 C41.1060937,33.27075 41.2410937,38.30175 40.0125937,41.98725 C37.3643437,50.1975 32.1015937,53.1585 23.6145937,53.85825 C3.46584375,55.35675 -4.63190625,43.3845 2.77959375,27.46575 C5.64159375,21.3705 11.0213437,15.012 11.6468437,14.63625 C11.5883437,17.73 12.2925937,20.51775 14.2860937,22.91625 C14.3423437,22.986 14.3850937,23.085 14.4885937,23.0985 C18.9773437,19.728 22.2690937,15.91425 23.1263437,10.2915 C23.6618437,6.83775 23.2005937,3.24675 21.9270937,0 Z" id="Path"></path>
        </g>
    </g>
</svg>