<?xml version="1.0" encoding="UTF-8"?>
<svg width="120px" height="120px" viewBox="0 0 120 120" version="1.1" xmlns="http://www.w3.org/2000/svg" xmlns:xlink="http://www.w3.org/1999/xlink">
    <!-- Generator: Sketch 61.2 (89653) - https://sketch.com -->
    <title>Uber</title>
    <desc>Created with Sketch.</desc>
    <g id="Uber" stroke="none" stroke-width="1" fill="none" fill-rule="evenodd">
        <rect fill="#000000" x="0" y="0" width="120" height="120"></rect>
        <g id="uber" transform="translate(29.000000, 49.000000)" fill="#FFFFFF" fill-rule="nonzero">
            <path d="M0,0.222 L0,13.118 C0,17.98 3.38,21.178 7.8,21.178 C9.958,21.178 11.856,20.346 13.234,18.916 L13.234,20.84 L16.302,20.84 L16.302,0.222 L13.208,0.222 L13.208,12.936 C13.208,16.212 10.998,18.422 8.164,18.422 C5.278,18.422 3.094,16.264 3.094,12.936 L3.094,0.222 L0,0.222 M19.344,0.222 L19.344,20.84 L22.282,20.84 L22.282,18.942 C23.6941289,20.3770731 25.624665,21.1830251 27.638,21.178 C29.7337621,21.1990645 31.7498244,20.3758293 33.2318269,18.8938269 C34.7138293,17.4118244 35.5370645,15.3957621 35.516,13.3 C35.5161041,11.2177258 34.6836222,9.22185247 33.203925,7.75680573 C31.7242278,6.29175899 29.7201701,5.47917726 27.638,5.5 C25.6325002,5.4960818 23.7104462,6.30240689 22.308,7.736 L22.308,0.222 L19.344,0.222 M45.006,5.5 C40.612,5.5 37.284,9.088 37.284,13.3 C37.284,17.798 40.768,21.1 45.266,21.1 C48.022,21.1 50.258,19.956 51.74,17.954 L49.608,16.342 C48.49,17.85 47.008,18.5 45.266,18.5 C42.744,18.5 40.716,16.732 40.3,14.288 L52.52,14.288 L52.52,13.3 C52.52,8.854 49.322,5.5 45.006,5.5 M61.36,5.708 C59.722,5.708 58.5,6.462 57.772,7.658 L57.772,5.812 L54.834,5.812 L54.834,20.84 L57.798,20.84 L57.798,12.286 C57.798,9.972 59.228,8.464 61.178,8.464 L62.4,8.464 L62.4,5.682 L61.36,5.682 M44.954,8.1 C47.164,8.1 49.01,9.634 49.504,11.922 L40.3,11.922 C40.898,9.634 42.744,8.1 44.954,8.1 M27.43,8.1 C30.264,8.1 32.578,10.44 32.578,13.3 C32.578,16.238 30.264,18.5 27.43,18.5 C24.5682781,18.4856912 22.256,16.1617576 22.256,13.3 C22.256,10.4382424 24.5682781,8.11430879 27.43,8.1 L27.43,8.1 Z" id="Shape"></path>
        </g>
    </g>
</svg>