<?xml version="1.0" encoding="UTF-8"?>
<svg width="120px" height="120px" viewBox="0 0 120 120" version="1.1" xmlns="http://www.w3.org/2000/svg" xmlns:xlink="http://www.w3.org/1999/xlink">
    <!-- Generator: Sketch 61.2 (89653) - https://sketch.com -->
    <title>Wallet</title>
    <desc>Created with Sketch.</desc>
    <g id="Wallet" stroke="none" stroke-width="1" fill="none" fill-rule="evenodd">
        <rect fill="#000000" x="0" y="0" width="120" height="120"></rect>
        <g id="wallet" transform="translate(39.000000, 41.000000)" fill="#FFFFFF" fill-rule="nonzero">
            <path d="M42,9.92578125 C42,9.625 41.9658203,9.31738281 41.8974609,9.00292969 C41.8291016,8.68847656 41.6992188,8.31933594 41.5078125,7.89550781 C41.3164062,7.47167969 40.9882812,7.08203125 40.5234375,6.7265625 C40.0585938,6.37109375 39.484375,6.09765625 38.8007812,5.90625 L9.14648438,0 C8.43554688,0 7.77929688,0.177734375 7.17773438,0.533203125 C6.57617188,0.888671875 6.09765625,1.3671875 5.7421875,1.96875 C5.38671875,2.5703125 5.20898438,3.2265625 5.20898438,3.9375 L5.20898438,9.1875 L3.89648438,9.1875 C2.83007812,9.21484375 1.9140625,9.61132813 1.1484375,10.3769531 C0.3828125,11.1425781 0,12.0585938 0,13.125 L0,34.125 C0,35.21875 0.3828125,36.1484375 1.1484375,36.9140625 C1.9140625,37.6796875 2.84375,38.0625 3.9375,38.0625 L38.0625,38.0625 C39.15625,38.0625 40.0859375,37.6796875 40.8515625,36.9140625 C41.6171875,36.1484375 42,35.21875 42,34.125 L42,9.92578125 Z M7.83398437,3.9375 C7.83398437,3.58203125 7.95019531,3.28125 8.18261719,3.03515625 C8.41503906,2.7890625 8.70898437,2.65234375 9.06445312,2.625 L38.0214844,8.49023438 L37.9189453,8.67480469 L37.5087891,9.04394531 L36.75,9.1875 L7.83398437,9.1875 L7.83398437,3.9375 Z M39.375,34.125 C39.375,34.4804688 39.2451172,34.7880859 38.9853516,35.0478516 C38.7255859,35.3076172 38.4179688,35.4375 38.0625,35.4375 L3.9375,35.4375 C3.58203125,35.4375 3.27441406,35.3076172 3.01464844,35.0478516 C2.75488281,34.7880859 2.625,34.4804688 2.625,34.125 L2.625,13.125 C2.625,12.7695312 2.75488281,12.4619141 3.01464844,12.2021484 C3.27441406,11.9423828 3.58203125,11.8125 3.9375,11.8125 L36.75,11.8125 C37.4609375,11.8125 38.0761719,11.6962891 38.5957031,11.4638672 C39.1152344,11.2314453 39.375,10.9101562 39.375,10.5 L39.375,34.125 Z M7.85449219,21 C7.12988281,21 6.51464844,21.2597656 6.00878906,21.7792969 C5.50292969,22.2988281 5.25,22.9208984 5.25,23.6455078 C5.25,24.3701172 5.50292969,24.9853516 6.00878906,25.4912109 C6.51464844,25.9970703 7.12988281,26.25 7.85449219,26.25 C8.57910156,26.25 9.20117188,25.9970703 9.72070312,25.4912109 C10.2402344,24.9853516 10.5,24.3701172 10.5,23.6455078 C10.5,22.9208984 10.2402344,22.2988281 9.72070312,21.7792969 C9.20117188,21.2597656 8.57910156,21 7.85449219,21 Z" id="Shape"></path>
        </g>
    </g>
</svg>