<?xml version="1.0" encoding="UTF-8"?>
<svg width="120px" height="120px" viewBox="0 0 120 120" version="1.1" xmlns="http://www.w3.org/2000/svg" xmlns:xlink="http://www.w3.org/1999/xlink">
    <!-- Generator: Sketch 61.2 (89653) - https://sketch.com -->
    <title>Whatsapp</title>
    <desc>Created with Sketch.</desc>
    <g id="Whatsapp" stroke="none" stroke-width="1" fill="none" fill-rule="evenodd">
        <rect fill="#000000" x="0" y="0" width="120" height="120"></rect>
        <g id="whatsapp-line" transform="translate(36.000000, 36.000000)" fill="#FFFFFF" fill-rule="nonzero">
            <path d="M12.6072,39.5856 L14.3448,40.6008 C17.2750546,42.3097725 20.6078133,43.2069581 24,43.2000402 C34.6038672,43.2000402 43.2,34.6038672 43.2,24 C43.2,13.3961328 34.6038672,4.8 24,4.8 C13.3961328,4.8 4.8,13.3961328 4.8,24 C4.8,27.4464 5.7048,30.7512 7.4016,33.6576 L8.4144,35.3952 L6.8472,41.1576 L12.6072,39.5856 L12.6072,39.5856 Z M0.0096,48.0000311 L3.2544,36.0768 C1.11633096,32.411654 -0.00696975644,28.2431811 -3.22373775e-05,24 C-3.22373775e-05,10.7448 10.7448,0 24,0 C37.2552,0 48,10.7448 48,24 C48,37.2552 37.2552,48.0000311 24,48.0000311 C19.7586672,48.0068455 15.5919756,46.8844067 11.928,44.748 L0.0096,48.0000311 Z M15.3384,12.7392 C15.66,12.7152 15.984,12.7152 16.3056,12.7296 C16.4352,12.7392 16.5648,12.7536 16.6944,12.768 C17.076,12.8112 17.496,13.044 17.6376,13.3656 C18.3528,14.988 19.0488,16.6224 19.7208,18.2616 C19.8696,18.6264 19.7808,19.0944 19.4976,19.5504 C19.3028302,19.8587481 19.0921453,20.1567511 18.8664,20.4432 C18.5952,20.7912 18.012,21.4296 18.012,21.4296 C18.012,21.4296 17.7744,21.7128 17.8656,22.0656 C17.8992,22.2 18.0096,22.3944 18.1104,22.5576 L18.252,22.7856 C18.8664,23.8104 19.692,24.8496 20.7,25.8288 C20.988,26.1072 21.2688,26.3928 21.5712,26.6592 C22.6944,27.6504 23.9664,28.4592 25.3392,29.0592 L25.3512,29.064 C25.5552,29.1528 25.6584,29.2008 25.956,29.328 C26.1048,29.3904 26.2584,29.4456 26.4144,29.4864 C26.7440917,29.5703669 27.0918743,29.4471741 27.2952,29.1744 C29.0328,27.0696 29.1912,26.9328 29.2056,26.9328 L29.2056,26.9376 C29.4498248,26.7098092 29.7805796,26.5986826 30.1128,26.6328 C30.2568,26.6424 30.4032,26.6688 30.5376,26.7288 C31.812,27.312 33.8976,28.2216 33.8976,28.2216 L35.2944,28.848 C35.5296,28.9608 35.7432,29.2272 35.7504,29.484 C35.76,29.6448 35.7744,29.904 35.7192,30.3792 C35.6424,31.0008 35.4552,31.7472 35.268,32.1384 C35.1397973,32.4053723 34.9696399,32.6500748 34.764,32.8632 C34.5218258,33.117474 34.2567015,33.3488552 33.972,33.5544 C33.8735056,33.6284683 33.773484,33.7004838 33.672,33.7704 C33.3734885,33.9597901 33.0667922,34.1359603 32.7528,34.2984 C32.1348789,34.6266196 31.4523888,34.8150623 30.7536,34.8504 C30.3096,34.8744 29.8656,34.908 29.4192,34.884 C29.4,34.884 28.056,34.6752 28.056,34.6752 C24.6438088,33.7776943 21.4881348,32.0963117 18.84,29.7648 C18.2976,29.2872 17.796,28.7736 17.2824,28.2624 C15.1464,26.1384 13.5336,23.8464 12.5544,21.6816 C12.053206,20.6190926 11.782478,19.4625689 11.7598489,18.288 C11.7501066,16.8308437 12.2264326,15.4120001 13.1136,14.256 C13.2888,14.0304 13.4544,13.7952 13.74,13.524 C14.0448,13.236 14.2368,13.0824 14.4456,12.9768 C14.7232172,12.8376753 15.0260699,12.7560438 15.336,12.7368 L15.3384,12.7392 Z" id="Shape"></path>
        </g>
    </g>
</svg>