<?xml version="1.0" encoding="UTF-8"?>
<svg width="120px" height="120px" viewBox="0 0 120 120" version="1.1" xmlns="http://www.w3.org/2000/svg" xmlns:xlink="http://www.w3.org/1999/xlink">
    <!-- Generator: Sketch 61.2 (89653) - https://sketch.com -->
    <title>Word</title>
    <desc>Created with Sketch.</desc>
    <g id="Word" stroke="none" stroke-width="1" fill="none" fill-rule="evenodd">
        <rect fill="#000000" x="0" y="0" width="120" height="120"></rect>
        <g id="Maps" fill="#000000" fill-rule="nonzero">
            <rect id="Rectangle" style="mix-blend-mode: multiply;" x="0" y="-4.26325641e-14" width="120" height="119.220779" rx="26"></rect>
        </g>
        <g id="file-text" transform="translate(44.000000, 40.000000)" stroke="#FFFFFF" stroke-linecap="round" stroke-linejoin="round" stroke-width="4">
            <path d="M20,0 L4,0 C1.790861,0 0,1.790861 0,4 L0,36 C0,38.209139 1.790861,40 4,40 L28,40 C30.209139,40 32,38.209139 32,36 L32,12 L20,0 Z" id="Path"></path>
            <polyline id="Path" points="20 0 20 12 32 12"></polyline>
            <line x1="24" y1="22" x2="8" y2="22" id="Path"></line>
            <line x1="24" y1="30" x2="8" y2="30" id="Path"></line>
            <polyline id="Path" points="12 14 10 14 8 14"></polyline>
        </g>
    </g>
</svg>